<?xml version="1.0" encoding="UTF-8"?>
<svg version="1.1" xmlns="http://www.w3.org/2000/svg" width="1810" height="400">
<path d="M0 0 C432.3 0 864.6 0 1310 0 C1310 188.1 1310 376.2 1310 570 C877.7 570 445.4 570 0 570 C0 381.9 0 193.8 0 0 Z " fill="#FEFEFE" transform="translate(0,0)"/>
<path d="M0 0 C0 17.16 0 34.32 0 52 C-5.94 52.66 -11.88 53.32 -18 54 C-19.98 54.66 -21.96 55.32 -24 56 C-27.375 56.125 -27.375 56.125 -30 56 C-30 56.66 -30 57.32 -30 58 C-32.90600261 59.25664978 -34.79604584 60 -38 60 C-38 60.66 -38 61.32 -38 62 C-42.29 62.99 -46.58 63.98 -51 65 C-51 65.66 -51 66.32 -51 67 C-51.99 67 -52.98 67 -54 67 C-54 67.66 -54 68.32 -54 69 C-55.65 69.33 -57.3 69.66 -59 70 C-59 70.66 -59 71.32 -59 72 C-60.72265625 73.48046875 -60.72265625 73.48046875 -63.0625 75.1875 C-70.53203742 80.68161863 -70.53203742 80.68161863 -76 88 C-76.66 88 -77.32 88 -78 88 C-79.13426792 90.18751669 -80.10709518 92.2998665 -80.9375 94.625 C-82 97 -82 97 -85 99 C-86.21418833 100.9466071 -86.21418833 100.9466071 -87.1875 103.125 C-87.53167969 103.84945312 -87.87585938 104.57390625 -88.23046875 105.3203125 C-88.48441406 105.87460937 -88.73835938 106.42890625 -89 107 C-89.66 107 -90.32 107 -91 107 C-91.33 109.31 -91.66 111.62 -92 114 C-92.66 114 -93.32 114 -94 114 C-94.185625 115.7634375 -94.185625 115.7634375 -94.375 117.5625 C-94.86740385 121.52253663 -95.87653069 125.16698706 -97 129 C-100.07675775 142.17654951 -100.13681466 155.12906995 -100.09765625 168.5703125 C-100.0957883 170.46174075 -100.09436618 172.35316948 -100.09336853 174.24459839 C-100.08957306 179.19288498 -100.07976853 184.14114164 -100.06866455 189.0894165 C-100.05657509 195.0425759 -100.05203403 200.99574538 -100.04621124 206.94891357 C-100.03655487 215.96596312 -100.01737762 224.98294715 -100 234 C-115.84 234 -131.68 234 -148 234 C-148.04010881 209.0656902 -148.04010881 209.0656902 -148.04882812 198.37695312 C-148.05478883 191.10456608 -148.06181456 183.83219171 -148.07543945 176.55981445 C-148.08636341 170.69186451 -148.09229686 164.82392819 -148.09487724 158.95596886 C-148.09671444 156.72546868 -148.10030179 154.49496919 -148.10573006 152.26447487 C-148.17614878 122.10976625 -148.17614878 122.10976625 -145.5625 112.5625 C-145.29824219 111.58410156 -145.03398437 110.60570312 -144.76171875 109.59765625 C-143.91341756 106.70473168 -142.99592275 103.84549356 -142 101 C-141.65023242 99.67088318 -141.30903983 98.33917261 -141 97 C-140.34 97 -139.68 97 -139 97 C-139 95.35 -139 93.7 -139 92 C-138.34 92 -137.68 92 -137 92 C-136.896875 90.80375 -136.79375 89.6075 -136.6875 88.375 C-136.18975219 84.42105962 -135.11910487 81.42316941 -133 78 C-131.515 77.01 -131.515 77.01 -130 76 C-128.72715447 73.86419894 -128.72715447 73.86419894 -127.625 71.375 C-124.46657485 64.80206118 -120.92393812 58.43331102 -116 53 C-115.34 53 -114.68 53 -114 53 C-113.7525 52.4225 -113.505 51.845 -113.25 51.25 C-111.81700012 48.67060021 -110.21575324 46.93878408 -108 45 C-107.34 45 -106.68 45 -106 45 C-105.67 44.01 -105.34 43.02 -105 42 C-104.34 42 -103.68 42 -103 42 C-103 41.34 -103 40.68 -103 40 C-101.20963542 39.0234375 -99.41927083 38.046875 -97.62890625 37.0703125 C-95.83381685 36.08589976 -95.83381685 36.08589976 -95 34 C-94.34 34 -93.68 34 -93 34 C-93 33.34 -93 32.68 -93 32 C-91.68 31.67 -90.36 31.34 -89 31 C-89 30.34 -89 29.68 -89 29 C-88.401875 28.896875 -87.80375 28.79375 -87.1875 28.6875 C-84.95131965 28.17793458 -84.95131965 28.17793458 -83.640625 26.578125 C-81.72834121 24.73869011 -80.02314417 24.02932984 -77.5625 23.0625 C-74.70157994 21.86008432 -73.09514914 21.09514914 -70.875 18.875 C-68.26151887 16.26151887 -65.53852964 15.81658376 -62 15 C-62 14.34 -62 13.68 -62 13 C-61.35675781 12.85304687 -60.71351563 12.70609375 -60.05078125 12.5546875 C-54.70596442 11.22801399 -50.0226641 9.59135924 -45.125 7.0625 C-39.44747105 4.35859369 -33.91408508 2.84220178 -27.75 1.625 C-26.94191895 1.45750244 -26.13383789 1.29000488 -25.30126953 1.11743164 C-16.64378346 -0.44982822 -9.16614783 0 0 0 Z " fill="#5773B4" transform="translate(296,152)"/>
<path d="M0 0 C1.56814453 -0.00580078 1.56814453 -0.00580078 3.16796875 -0.01171875 C8.51144677 -0.0049634 13.61184557 0.18568349 18.875 1.125 C18.875 1.785 18.875 2.445 18.875 3.125 C20.525 3.125 22.175 3.125 23.875 3.125 C23.875 3.785 23.875 4.445 23.875 5.125 C25.03 5.186875 26.185 5.24875 27.375 5.3125 C32.4248645 5.93704155 35.79235836 8.24541816 39.875 11.125 C41.27298828 11.94291016 41.27298828 11.94291016 42.69921875 12.77734375 C46.79158632 15.80257488 49.52513859 19.32753114 52.5625 23.375 C53.13033203 24.10074219 53.69816406 24.82648438 54.28320312 25.57421875 C61.3886432 34.92041309 62.875 43.3850728 62.875 55.125 C51.985 55.125 41.095 55.125 29.875 55.125 C29.875 54.135 29.875 53.145 29.875 52.125 C29.215 52.125 28.555 52.125 27.875 52.125 C27.77703125 51.28195312 27.6790625 50.43890625 27.578125 49.5703125 C27.42859375 48.47460938 27.2790625 47.37890625 27.125 46.25 C26.91617188 44.61417969 26.91617188 44.61417969 26.703125 42.9453125 C26.18633825 40.00013928 26.18633825 40.00013928 23.859375 38.9296875 C23.20453125 38.66414063 22.5496875 38.39859375 21.875 38.125 C21.545 37.135 21.215 36.145 20.875 35.125 C18.02520361 34.00819294 18.02520361 34.00819294 14.875 33.125 C13.52778717 32.48684656 12.18752882 31.83174629 10.875 31.125 C10.875 30.465 10.875 29.805 10.875 29.125 C2.625 29.125 -5.625 29.125 -14.125 29.125 C-14.455 30.445 -14.785 31.765 -15.125 33.125 C-18.40377692 34.76438846 -21.65215796 35.96738599 -25.125 37.125 C-25.81758229 39.11617408 -26.48247635 41.1171136 -27.125 43.125 C-28.625 44.8125 -28.625 44.8125 -30.125 46.125 C-36.24173515 55.30010273 -35.10463758 69.78662397 -33.6953125 80.34375 C-31.33891954 90.46751233 -25.65767557 98.54541346 -17.53125 104.8828125 C-12.08031308 107.6967702 -5.63707808 107.30712247 0.375 107.3125 C1.45587891 107.33086914 1.45587891 107.33086914 2.55859375 107.34960938 C7.36974183 107.36265951 11.30782121 106.64538978 15.875 105.125 C15.875 104.465 15.875 103.805 15.875 103.125 C19.33653846 100.125 19.33653846 100.125 21.875 100.125 C22.1225 99.320625 22.37 98.51625 22.625 97.6875 C23.0375 96.841875 23.45 95.99625 23.875 95.125 C25.195 94.795 26.515 94.465 27.875 94.125 C28.535 90.495 29.195 86.865 29.875 83.125 C40.765 83.125 51.655 83.125 62.875 83.125 C61.7712963 95.26574074 61.7712963 95.26574074 59.875 100.125 C59.52523242 101.45411682 59.18403983 102.78582739 58.875 104.125 C58.215 104.125 57.555 104.125 56.875 104.125 C56.875 105.115 56.875 106.105 56.875 107.125 C56.215 107.125 55.555 107.125 54.875 107.125 C54.77058594 107.69734375 54.66617188 108.2696875 54.55859375 108.859375 C53.76340501 111.49485768 52.59598509 113.18531308 50.9375 115.375 C50.41285156 116.08140625 49.88820313 116.7878125 49.34765625 117.515625 C48.61869141 118.31226563 48.61869141 118.31226563 47.875 119.125 C47.215 119.125 46.555 119.125 45.875 119.125 C45.38 120.61 45.38 120.61 44.875 122.125 C44.215 122.125 43.555 122.125 42.875 122.125 C42.875 122.785 42.875 123.445 42.875 124.125 C40.48641976 125.77086251 38.11650687 127.27628059 35.625 128.75 C34.94308594 129.17023438 34.26117187 129.59046875 33.55859375 130.0234375 C32.56279297 130.61898437 32.56279297 130.61898437 31.546875 131.2265625 C30.9394043 131.59088379 30.33193359 131.95520508 29.70605469 132.33056641 C27.875 133.125 27.875 133.125 23.875 133.125 C23.875 133.785 23.875 134.445 23.875 135.125 C8.72345263 139.40308396 -11.55496919 141.21205876 -26.375 134.8125 C-27.83679688 134.19955078 -27.83679688 134.19955078 -29.328125 133.57421875 C-32.26966311 132.05004188 -34.5789279 130.23267558 -37.125 128.125 C-38.27294531 127.44644758 -39.43793677 126.79503 -40.625 126.1875 C-47.13124322 122.54176027 -52.0935823 116.32896845 -56.125 110.125 C-56.125 109.135 -56.125 108.145 -56.125 107.125 C-56.785 107.125 -57.445 107.125 -58.125 107.125 C-58.125 106.465 -58.125 105.805 -58.125 105.125 C-58.785 105.125 -59.445 105.125 -60.125 105.125 C-62.76726575 100.56108643 -63.82093917 96.33040961 -64.6953125 91.19921875 C-64.92317305 89.14383705 -64.92317305 89.14383705 -66.125 88.125 C-67.36460841 81.80387628 -67.31730113 75.4859281 -67.3125 69.0625 C-67.31169434 67.95302002 -67.31088867 66.84354004 -67.31005859 65.70043945 C-67.15769606 45.25846657 -67.15769606 45.25846657 -63.125 38.125 C-62.465 38.125 -61.805 38.125 -61.125 38.125 C-60.795 35.815 -60.465 33.505 -60.125 31.125 C-59.465 31.125 -58.805 31.125 -58.125 31.125 C-57.75375 30.073125 -57.75375 30.073125 -57.375 29 C-55.95319762 25.72985452 -54.25253712 22.983878 -52.125 20.125 C-51.465 20.125 -50.805 20.125 -50.125 20.125 C-49.795 19.135 -49.465 18.145 -49.125 17.125 C-48.465 17.125 -47.805 17.125 -47.125 17.125 C-47.125 16.465 -47.125 15.805 -47.125 15.125 C-44.97265625 13.6875 -44.97265625 13.6875 -42.1875 12.125 C-38.50112792 10.26422105 -38.50112792 10.26422105 -36.125 7.125 C-24.46620699 0.84152419 -12.99505324 -0.04842877 0 0 Z " fill="#161A30" transform="translate(720.125,225.875)"/>
<path d="M0 0 C0.05058145 7.36894815 0.08568333 14.73785178 0.10986328 22.10693359 C0.11994011 24.61541415 0.13360179 27.12388292 0.15087891 29.63232422 C0.17505337 33.23147488 0.18646612 36.83047067 0.1953125 40.4296875 C0.20563507 41.55680145 0.21595764 42.68391541 0.22659302 43.84518433 C0.22674408 44.88611237 0.22689514 45.92704041 0.22705078 46.99951172 C0.231492 47.91884491 0.23593323 48.8381781 0.24050903 49.78536987 C0 52 0 52 -2 54 C-4.8907496 54.4673667 -7.71660569 54.83699342 -10.625 55.125 C-11.42679687 55.21136719 -12.22859375 55.29773438 -13.0546875 55.38671875 C-15.03563635 55.59896327 -17.01772718 55.80049931 -19 56 C-19 56.66 -19 57.32 -19 58 C-19.99 58 -20.98 58 -22 58 C-22 58.66 -22 59.32 -22 60 C-23.1446875 61.051875 -23.1446875 61.051875 -24.3125 62.125 C-30.73913198 69.00000165 -30.62904422 76.9530954 -30.37109375 85.90625 C-30.10253394 90.21107681 -28.99763334 93.66739363 -26.875 97.43359375 C-26 99 -26 99 -26 101 C-25.401875 101.28875 -24.80375 101.5775 -24.1875 101.875 C-22 103 -22 103 -19 105 C-19 105.66 -19 106.32 -19 107 C-18.401875 107.28875 -17.80375 107.5775 -17.1875 107.875 C-15 109 -15 109 -12 111 C-10.1394122 111.57018013 -8.26200951 112.08701344 -6.375 112.5625 C-1.10193322 113.89806678 -1.10193322 113.89806678 0 115 C0.09319449 116.5348297 0.117458 118.07392082 0.11352539 119.61157227 C0.11341209 121.08298424 0.11341209 121.08298424 0.11329651 122.5841217 C0.10813522 123.6507756 0.10297394 124.7174295 0.09765625 125.81640625 C0.0962413 126.9025975 0.09482635 127.98878876 0.09336853 129.1078949 C0.08775048 132.59279075 0.07519492 136.07762342 0.0625 139.5625 C0.05748733 141.91861887 0.05292402 144.27473874 0.04882812 146.63085938 C0.03777519 152.42059464 0.02101951 158.21029281 0 164 C-2.37507855 164.02719556 -4.74983964 164.04693247 -7.125 164.0625 C-7.79015625 164.07087891 -8.4553125 164.07925781 -9.140625 164.08789062 C-13.20681354 164.10782292 -17.0120092 163.78890161 -21 163 C-21 162.34 -21 161.68 -21 161 C-22.1446875 160.814375 -22.1446875 160.814375 -23.3125 160.625 C-26 160 -26 160 -29 158 C-30.38276205 157.50362388 -31.78064663 157.04830101 -33.1875 156.625 C-37.10185821 155.37342707 -40.64753402 153.79204984 -44.2734375 151.8671875 C-46.1654848 150.86527659 -46.1654848 150.86527659 -49 150 C-49 149.34 -49 148.68 -49 148 C-49.99 147.67 -50.98 147.34 -52 147 C-53.578125 145.3984375 -53.578125 145.3984375 -55.25 143.375 C-57.64065189 140.54369829 -60.08222378 137.88419106 -62.75 135.3125 C-65.35117543 132.74639659 -67.42191286 130.34183158 -69 127 C-69 126.01 -69 125.02 -69 124 C-69.66 124 -70.32 124 -71 124 C-71 123.34 -71 122.68 -71 122 C-71.66 122 -72.32 122 -73 122 C-73.79359736 119.6464689 -74.58491783 117.29221117 -75.375 114.9375 C-75.59671875 114.28072266 -75.8184375 113.62394531 -76.046875 112.94726562 C-79.43108206 102.84441221 -81.1962508 93.51269041 -81.1875 82.875 C-81.18814453 82.05475342 -81.18878906 81.23450684 -81.18945312 80.3894043 C-81.12730797 73.12760167 -80.30633304 66.14984066 -79 59 C-78.34 59 -77.68 59 -77 59 C-77.07863281 58.34257812 -77.15726563 57.68515625 -77.23828125 57.0078125 C-76.90180948 52.76054594 -75.13351816 49.61708046 -73.1875 45.875 C-72.65286133 44.80185547 -72.65286133 44.80185547 -72.10742188 43.70703125 C-69.40169004 38.3948605 -69.40169004 38.3948605 -67.43481445 36.46142578 C-65.7387029 34.9477368 -65.7387029 34.9477368 -65 32 C-64.34 32 -63.68 32 -63 32 C-62.60941406 31.12214844 -62.60941406 31.12214844 -62.2109375 30.2265625 C-60.92349225 27.85932446 -59.53435473 26.26767914 -57.625 24.375 C-57.03976563 23.78460938 -56.45453125 23.19421875 -55.8515625 22.5859375 C-53.98856384 20.99020447 -52.18208088 20.08639772 -50 19 C-49.67 18.34 -49.34 17.68 -49 17 C-48.34 17 -47.68 17 -47 17 C-46.505 15.515 -46.505 15.515 -46 14 C-45.01 14 -44.02 14 -43 14 C-43 13.34 -43 12.68 -43 12 C-41.35 11.67 -39.7 11.34 -38 11 C-38 10.34 -38 9.68 -38 9 C-37.01 9 -36.02 9 -35 9 C-35 8.34 -35 7.68 -35 7 C-32.9417957 6.30230363 -30.88197175 5.60918559 -28.81640625 4.93359375 C-26.85738743 4.28421026 -24.90726193 3.60762687 -22.96484375 2.91015625 C-21.90394531 2.54792969 -20.84304688 2.18570313 -19.75 1.8125 C-18.77546875 1.46832031 -17.8009375 1.12414062 -16.796875 0.76953125 C-11.20650259 -0.3634969 -5.68417331 -0.13896302 0 0 Z " fill="#5873B4" transform="translate(297,224)"/>
<path d="M0 0 C29.7 0 59.4 0 90 0 C90 9.24 90 18.48 90 28 C89 29 89 29 86.67784119 29.12025452 C85.64969803 29.11803391 84.62155487 29.11581329 83.56225586 29.11352539 C82.40112778 29.11344986 81.23999969 29.11337433 80.04368591 29.11329651 C78.14840904 29.10555458 78.14840904 29.10555458 76.21484375 29.09765625 C74.92888809 29.0962413 73.64293243 29.09482635 72.31800842 29.09336853 C68.89356557 29.08954418 65.46916491 29.07971462 62.04473877 29.06866455 C58.55261822 29.05844864 55.06049067 29.05381582 51.56835938 29.04882812 C44.71220228 29.03862247 37.85616115 29.01905077 31 29 C31 37.91 31 46.82 31 56 C36.18009766 55.98259766 36.18009766 55.98259766 41.46484375 55.96484375 C44.79418852 55.95705431 48.12353229 55.95097691 51.45288086 55.94506836 C53.77417451 55.94002667 56.09546497 55.93319349 58.41674805 55.92456055 C61.74528795 55.91248775 65.07378602 55.90677021 68.40234375 55.90234375 C69.44712387 55.89718246 70.49190399 55.89202118 71.56834412 55.88670349 C72.52926468 55.88662796 73.49018524 55.88655243 74.48022461 55.88647461 C75.33071884 55.884254 76.18121307 55.88203339 77.05747986 55.87974548 C79 56 79 56 80 57 C80.08748207 58.92667507 80.10697334 60.85651861 80.09765625 62.78515625 C80.09515869 63.83840088 80.09266113 64.89164551 80.09008789 65.97680664 C80.08098389 67.32508545 80.07187988 68.67336426 80.0625 70.0625 C80.041875 74.331875 80.02125 78.60125 80 83 C63.5 83 47 83 30 83 C30 99.5 30 116 30 133 C20.1 133 10.2 133 0 133 C0 89.11 0 45.22 0 0 Z " fill="#12162D" transform="translate(344,228)"/>
<path d="M0 0 C0.81597656 -0.01224609 1.63195312 -0.02449219 2.47265625 -0.03710938 C9.99267373 -0.05521536 15.8588326 1.57646666 22.4375 5.3125 C23.39527344 5.85132813 24.35304688 6.39015625 25.33984375 6.9453125 C26.05269531 7.35523438 26.76554688 7.76515625 27.5 8.1875 C27.5 8.8475 27.5 9.5075 27.5 10.1875 C28.056875 10.249375 28.61375 10.31125 29.1875 10.375 C32.50086472 11.53915517 34.20475296 13.58208444 36.5 16.1875 C36.995 17.6725 36.995 17.6725 37.5 19.1875 C38.16 19.1875 38.82 19.1875 39.5 19.1875 C42.5 24.8125 42.5 24.8125 42.5 28.1875 C43.16 28.1875 43.82 28.1875 44.5 28.1875 C44.63277344 28.96996094 44.76554688 29.75242187 44.90234375 30.55859375 C45.16724609 32.07646484 45.16724609 32.07646484 45.4375 33.625 C45.69853516 35.13900391 45.69853516 35.13900391 45.96484375 36.68359375 C46.24751097 39.1162438 46.24751097 39.1162438 47.5 40.1875 C47.5 45.7975 47.5 51.4075 47.5 57.1875 C25.72 57.1875 3.94 57.1875 -18.5 57.1875 C-18.17 59.4975 -17.84 61.8075 -17.5 64.1875 C-16.84 64.1875 -16.18 64.1875 -15.5 64.1875 C-14.51 67.6525 -14.51 67.6525 -13.5 71.1875 C-12.84 71.1875 -12.18 71.1875 -11.5 71.1875 C-11.5 71.8475 -11.5 72.5075 -11.5 73.1875 C-3.37037086 74.60134855 4.68823496 75.21655175 12.5 72.1875 C14.27277259 70.66742158 14.27277259 70.66742158 15.5 69.1875 C16.16 69.1875 16.82 69.1875 17.5 69.1875 C18.49 67.2075 18.49 67.2075 19.5 65.1875 C28.08 65.1875 36.66 65.1875 45.5 65.1875 C45.17 68.4875 44.84 71.7875 44.5 75.1875 C43.84 75.1875 43.18 75.1875 42.5 75.1875 C42.32984375 75.80238281 42.1596875 76.41726563 41.984375 77.05078125 C39.99202733 83.69547267 39.99202733 83.69547267 37.4375 86.25 C35.5 87.1875 35.5 87.1875 33.5 87.1875 C33.005 88.6725 33.005 88.6725 32.5 90.1875 C30.01352735 91.70898445 27.60890769 93.03724163 25 94.3125 C24.26458984 94.67214844 23.52917969 95.03179687 22.77148438 95.40234375 C17.59728273 97.84533551 13.268587 99.29720371 7.5 99.1875 C6.26378906 99.23390625 5.02757812 99.2803125 3.75390625 99.328125 C-8.06885674 99.70351726 -16.68639717 97.89054122 -26.5 91.1875 C-27.428125 90.65125 -28.35625 90.115 -29.3125 89.5625 C-33.30736277 87.0514434 -35.12035225 84.21459619 -37.5 80.1875 C-38.34677429 79.01545686 -39.20142032 77.84907376 -40.0625 76.6875 C-48.12328462 65.43144941 -47.26054167 45.94131296 -45.10302734 32.76269531 C-44.23560879 29.10404473 -43.02860192 25.6200302 -41.5 22.1875 C-40.84 22.1875 -40.18 22.1875 -39.5 22.1875 C-39.2525 21.45144531 -39.005 20.71539062 -38.75 19.95703125 C-37.38105415 16.92396059 -35.87126415 15.18959791 -33.5 12.875 C-32.79875 12.17761719 -32.0975 11.48023438 -31.375 10.76171875 C-29.5 9.1875 -29.5 9.1875 -27.5 9.1875 C-27.5 8.5275 -27.5 7.8675 -27.5 7.1875 C-26.78972656 6.83816406 -26.07945312 6.48882812 -25.34765625 6.12890625 C-24.42855469 5.67386719 -23.50945313 5.21882813 -22.5625 4.75 C-21.18771484 4.07130859 -21.18771484 4.07130859 -19.78515625 3.37890625 C-17.59471096 2.38224606 -17.59471096 2.38224606 -16.5 1.1875 C-10.99032041 0.16530944 -5.59351926 0.00441826 0 0 Z " fill="#181C32" transform="translate(594.5,264.8125)"/>
<path d="M0 0 C0 0.66 0 1.32 0 2 C0.66 2 1.32 2 2 2 C2 2.66 2 3.32 2 4 C2.66 4 3.32 4 4 4 C4 4.66 4 5.32 4 6 C5.11375 6.0928125 5.11375 6.0928125 6.25 6.1875 C9.83127761 7.24560475 10.84857871 9.03252236 13 12 C13.66 12.33 14.32 12.66 15 13 C16.27918528 15.67358586 17.44479872 18.32240346 18.5625 21.0625 C19.03719727 22.17141602 19.03719727 22.17141602 19.52148438 23.30273438 C23.64721931 33.31486819 23 41.86753412 23 53 C1.55 53 -19.9 53 -42 53 C-42 54.32 -42 55.64 -42 57 C-41.34 57 -40.68 57 -40 57 C-39.566875 58.093125 -39.13375 59.18625 -38.6875 60.3125 C-37.49320901 63.08796498 -36.46894351 65.14829237 -34 67 C-33.01 67.33 -32.02 67.66 -31 68 C-31 68.66 -31 69.32 -31 70 C-28.79194476 70.0544452 -26.58349446 70.09299283 -24.375 70.125 C-23.14523437 70.14820313 -21.91546875 70.17140625 -20.6484375 70.1953125 C-15.32951557 69.91057364 -10.95482112 68.6618714 -7 65 C-6.505 63.515 -6.505 63.515 -6 62 C-3.28598706 60.64299353 -1.15153684 60.8876139 1.8828125 60.90234375 C3.63271484 60.90717773 3.63271484 60.90717773 5.41796875 60.91210938 C6.64128906 60.92048828 7.86460937 60.92886719 9.125 60.9375 C10.35605469 60.94201172 11.58710937 60.94652344 12.85546875 60.95117188 C15.90369392 60.9629867 18.95182314 60.97945972 22 61 C21.125 68.625 21.125 68.625 20 72 C19.34 72 18.68 72 18 72 C17.773125 72.886875 17.54625 73.77375 17.3125 74.6875 C13.87435096 83.36473329 3.14686673 89.46882809 -5.09765625 93.2890625 C-8.38405774 94.5172454 -11.53382363 94.86135295 -15 95 C-16.10472656 95.06316406 -17.20945312 95.12632812 -18.34765625 95.19140625 C-32.79113159 95.6544339 -44.80687626 92.38723163 -56 83 C-58.33045075 80.4941886 -60.2208512 77.91704963 -62 75 C-62.5775 74.113125 -63.155 73.22625 -63.75 72.3125 C-67.88675586 64.65950165 -69.35116322 57.40445625 -69.25 48.8125 C-69.24250732 47.97388428 -69.23501465 47.13526855 -69.22729492 46.27124023 C-68.98284501 32.08085439 -66.40851519 19.08201657 -56.55078125 8.328125 C-55 7 -55 7 -53 7 C-53 6.34 -53 5.68 -53 5 C-49.53846154 2 -49.53846154 2 -47 2 C-47 1.34 -47 0.68 -47 0 C-30.53584378 -4.96362179 -16.35092565 -5.80444904 0 0 Z " fill="#171B32" transform="translate(915,269)"/>
<path d="M0 0 C1.0725 0.598125 2.145 1.19625 3.25 1.8125 C7.06310491 4.84565163 9.06498527 8.56487774 11 13 C11 13.66 11 14.32 11 15 C11.66 15 12.32 15 13 15 C17.6663674 26.6659185 18 34.57872118 18 48 C-3.78 48 -25.56 48 -48 48 C-47.34 51.3 -46.68 54.6 -46 58 C-45.34 58 -44.68 58 -44 58 C-43.505 58.99 -43.505 58.99 -43 60 C-42.01 60.33 -41.02 60.66 -40 61 C-40 61.66 -40 62.32 -40 63 C-39.01 63 -38.02 63 -37 63 C-37 63.66 -37 64.32 -37 65 C-34.79194476 65.0544452 -32.58349446 65.09299283 -30.375 65.125 C-29.14523437 65.14820313 -27.91546875 65.17140625 -26.6484375 65.1953125 C-20.51638942 64.8670444 -16.51107769 63.13515455 -12 59 C-11.01 57.515 -11.01 57.515 -10 56 C-7.38623047 55.65942383 -7.38623047 55.65942383 -4.1171875 55.70703125 C-2.95058594 55.71669922 -1.78398438 55.72636719 -0.58203125 55.73632812 C0.64128906 55.76146484 1.86460938 55.78660156 3.125 55.8125 C4.97158203 55.83280273 4.97158203 55.83280273 6.85546875 55.85351562 C9.90407843 55.88896457 12.951825 55.93837921 16 56 C15.218342 60.07729712 14.17172466 64.01613614 13 68 C12.34 68 11.68 68 11 68 C11 68.99 11 69.98 11 71 C10.34 71 9.68 71 9 71 C8.7628125 71.74121094 8.525625 72.48242188 8.28125 73.24609375 C5.31868199 79.61380854 -1.75102282 83.73781 -8.0625 86.375 C-9.6977041 86.94795523 -11.34359678 87.49157252 -13 88 C-13.70511719 88.22429687 -14.41023438 88.44859375 -15.13671875 88.6796875 C-24.42308739 91.18580547 -34.58534447 90.50634488 -44 89 C-44 88.34 -44 87.68 -44 87 C-45.0828125 86.814375 -45.0828125 86.814375 -46.1875 86.625 C-48.95721894 86.0095069 -51.3970354 85.11555626 -54 84 C-54 83.34 -54 82.68 -54 82 C-54.58007812 81.73058594 -55.16015625 81.46117187 -55.7578125 81.18359375 C-65.88354874 75.83847514 -70.99658206 66.1156461 -74.40454102 55.56054688 C-75.52992939 50.72123846 -75.38959459 45.8808052 -75.3125 40.9375 C-75.31572266 39.90044922 -75.31894531 38.86339844 -75.32226562 37.79492188 C-75.27252705 30.664219 -74.25616481 24.76849443 -72 18 C-71.34 18 -70.68 18 -70 18 C-69.67 16.35 -69.34 14.7 -69 13 C-68.34 13 -67.68 13 -67 13 C-66.979375 12.154375 -66.95875 11.30875 -66.9375 10.4375 C-65.35732782 4.64353535 -61.16995536 1.2465701 -56.0625 -1.6875 C-55.051875 -2.120625 -54.04125 -2.55375 -53 -3 C-51.72886991 -3.68695116 -50.4580576 -4.37449055 -49.1875 -5.0625 C-33.1498764 -12.91582037 -14.06544398 -10.29447368 0 0 Z " fill="#181C32" transform="translate(1112,274)"/>
<path d="M0 0 C10.89 0 21.78 0 33 0 C33.66 3.3 34.32 6.6 35 10 C36.03973245 14.05204141 37.12142449 18.08651162 38.23242188 22.11914062 C39.21264581 25.7468576 40.10213154 29.28991135 40.58984375 33.01953125 C40.67757127 35.87893965 40.67757127 35.87893965 42 37 C42.32504884 38.68138899 42.60970362 40.37065381 42.875 42.0625 C43.49538216 45.68609581 44.24392097 48.96790409 45.625 52.375 C46.8573625 55.62395568 47.31920049 57.59519481 47 61 C47.66 61 48.32 61 49 61 C49 58.36 49 55.72 49 53 C49.66 53 50.32 53 51 53 C51.11601563 52.09507812 51.23203125 51.19015625 51.3515625 50.2578125 C52.1407581 44.75559618 53.26619142 39.32004212 54.375 33.875 C54.58382812 32.80378906 54.79265625 31.73257812 55.0078125 30.62890625 C55.21921875 29.59378906 55.430625 28.55867188 55.6484375 27.4921875 C55.83583496 26.55745605 56.02323242 25.62272461 56.21630859 24.65966797 C57.07421322 21.74813744 58.41781567 19.57625321 60 17 C60.71270583 13.52997446 60.71270583 13.52997446 61.0625 9.875 C61.79074192 3.31388713 61.79074192 3.31388713 64 0 C67.07275391 -0.34057617 67.07275391 -0.34057617 70.9765625 -0.29296875 C71.66181 -0.28872391 72.3470575 -0.28447906 73.05307007 -0.28010559 C75.24411129 -0.26329753 77.43423632 -0.22564405 79.625 -0.1875 C81.10936173 -0.17245579 82.59373785 -0.15876693 84.078125 -0.14648438 C87.71904833 -0.1133879 91.35943478 -0.06159207 95 0 C94.85699194 1.61104879 94.70888114 3.22164521 94.55859375 4.83203125 C94.47665771 5.72897705 94.39472168 6.62592285 94.31030273 7.55004883 C93.96053075 10.31162385 93.15947965 12.47642665 92 15 C91.5359375 16.6396875 91.5359375 16.6396875 91.0625 18.3125 C89.90959213 22.31376848 88.49881684 26.11670182 87 30 C86.34 30 85.68 30 85 30 C84.67 32.64 84.34 35.28 84 38 C83.34 38 82.68 38 82 38 C81.896875 39.258125 81.79375 40.51625 81.6875 41.8125 C80.56441731 51.88860806 76.97868999 61.53573523 73.546875 71.0234375 C73.28302002 71.75804199 73.01916504 72.49264648 72.74731445 73.24951172 C72.22224385 74.70869195 71.69241869 76.16617347 71.15698242 77.62158203 C69.30253032 82.77517102 68.20933458 87.55799439 67 93 C54.46 93 41.92 93 29 93 C20.40957447 74.10106383 20.40957447 74.10106383 21 68 C20.34 68 19.68 68 19 68 C18.505 63.05 18.505 63.05 18 58 C17.34 58 16.68 58 16 58 C15.67 54.7 15.34 51.4 15 48 C14.34 48 13.68 48 13 48 C12.7421875 46.7315625 12.484375 45.463125 12.21875 44.15625 C11.02774218 38.79671481 9.30214958 33.6802375 7.5 28.5 C5.45931741 22.63410486 3.62581775 16.91396626 2.50976562 10.79492188 C2.09111141 8.76642815 2.09111141 8.76642815 0 7 C0 4.69 0 2.38 0 0 Z " fill="#161A31" transform="translate(940,268)"/>
<path d="M0 0 C9.24 0 18.48 0 28 0 C28.33 35.64 28.66 71.28 29 108 C33.95 108 38.9 108 44 108 C44 116.25 44 124.5 44 133 C37.874375 133.0928125 37.874375 133.0928125 31.625 133.1875 C30.35865723 133.21481201 29.09231445 133.24212402 27.78759766 133.27026367 C19.50500992 133.33047007 11.47039592 133.10120486 5.0625 127.375 C0.32015753 119.61480322 -0.43327901 112.38589116 -0.34057617 103.42163086 C-0.34101425 102.29865601 -0.34145233 101.17568115 -0.34190369 100.01867676 C-0.33982588 96.33388438 -0.31654183 92.64955594 -0.29296875 88.96484375 C-0.28736923 86.39938099 -0.28310081 83.833915 -0.28010559 81.26844788 C-0.26985009 75.22315012 -0.246244 69.17804928 -0.21605712 63.1328302 C-0.18241719 56.24523051 -0.16600311 49.35762257 -0.15097082 42.46996105 C-0.11969121 28.3131998 -0.06471799 14.15664585 0 0 Z " fill="#151930" transform="translate(796,228)"/>
<path d="M0 0 C9.24 0 18.48 0 28 0 C28.02505615 3.20581787 28.0501123 6.41163574 28.07592773 9.71459961 C28.15922224 20.27985207 28.24793085 30.845054 28.33933926 41.41023922 C28.39461881 47.81896642 28.44804671 54.22769815 28.49731445 60.63647461 C28.54488395 66.81563501 28.59722378 72.99473791 28.65294075 79.17383003 C28.67339802 81.53703959 28.69210538 83.90026494 28.70907402 86.26350212 C28.73304365 89.56106174 28.76310801 92.85851152 28.79467773 96.15600586 C28.80331093 97.63738037 28.80331093 97.63738037 28.81211853 99.14868164 C28.82190735 100.04195663 28.83169617 100.93523163 28.84178162 101.85557556 C28.84823417 102.63633422 28.85468672 103.41709288 28.8613348 104.22151089 C28.80808857 106.02475604 28.80808857 106.02475604 30 107 C32.34987262 107.23527773 34.70556039 107.41386417 37.0625 107.5625 C39.351875 107.706875 41.64125 107.85125 44 108 C44 116.25 44 124.5 44 133 C35.42 133 26.84 133 18 133 C18 132.34 18 131.68 18 131 C16.02 131 14.04 131 12 131 C12 130.34 12 129.68 12 129 C11.278125 128.9175 10.55625 128.835 9.8125 128.75 C6.23742694 127.79664719 4.55410584 126.69216562 2 124 C-0.15981642 117.44596974 -0.2737503 111.3011255 -0.22705078 104.44335938 C-0.22734283 103.31077698 -0.22763489 102.17819458 -0.22793579 101.0112915 C-0.22654872 97.28869821 -0.21101663 93.56630809 -0.1953125 89.84375 C-0.19158016 87.25443633 -0.18873423 84.66512125 -0.18673706 82.07580566 C-0.17989566 75.9703212 -0.16415218 69.86491988 -0.14403808 63.75946665 C-0.12162525 56.80416369 -0.11067216 49.84885715 -0.10064721 42.89352703 C-0.07978425 28.59563961 -0.04312973 14.29783718 0 0 Z " fill="#161A30" transform="translate(499,228)"/>
<path d="M0 0 C9.24 0 18.48 0 28 0 C28 5.28 28 10.56 28 16 C28.66 16 29.32 16 30 16 C30.103125 15.0925 30.20625 14.185 30.3125 13.25 C31.00649813 9.96928156 31.70085668 8.39110905 34 6 C34.66 6 35.32 6 36 6 C36 5.34 36 4.68 36 4 C37.65 3.67 39.3 3.34 41 3 C41 2.34 41 1.68 41 1 C46.38516481 -0.79505494 52.32353788 0 58 0 C58 9.9 58 19.8 58 30 C45.625 30.495 45.625 30.495 33 31 C33 31.66 33 32.32 33 33 C32.34 33 31.68 33 31 33 C30.67 52.8 30.34 72.6 30 93 C20.1 93 10.2 93 0 93 C0 62.31 0 31.62 0 0 Z " fill="#1C2036" transform="translate(1142,268)"/>
<path d="M0 0 C14.19 0 28.38 0 43 0 C43 30.69 43 61.38 43 93 C33.43 93 23.86 93 14 93 C14 70.56 14 48.12 14 25 C9.38 25 4.76 25 0 25 C0 16.75 0 8.5 0 0 Z " fill="#191D33" transform="translate(440,268)"/>
<path d="M0 0 C3.28364082 1.70045685 5.6834844 3.22172191 7.84375 6.24609375 C8.93473505 13.25956907 9.05701948 19.23311909 5.50390625 25.5625 C4.28125 27.05859375 4.28125 27.05859375 1.53125 28.05859375 C0.78875 28.05859375 0.04625 28.05859375 -0.71875 28.05859375 C-0.71875 28.71859375 -0.71875 29.37859375 -0.71875 30.05859375 C-5.95219596 31.80307574 -11.59832435 31.73712996 -16.84375 30.05859375 C-17.4625 29.72859375 -18.08125 29.39859375 -18.71875 29.05859375 C-18.71875 28.39859375 -18.71875 27.73859375 -18.71875 27.05859375 C-19.70875 26.72859375 -20.69875 26.39859375 -21.71875 26.05859375 C-24.68863135 20.77880468 -25.53155461 16.07774141 -24.71875 10.05859375 C-23.13065649 5.85014595 -21.15732314 2.95988983 -17.71875 0.05859375 C-12.03936396 -1.83453493 -5.67989092 -1.96674384 0 0 Z " fill="#191D33" transform="translate(473.71875,226.94140625)"/>
<path d="M0 0 C29.7 0 59.4 0 90 0 C90 9.24 90 18.48 90 28 C89 29 89 29 86.67784119 29.12025452 C85.64969803 29.11803391 84.62155487 29.11581329 83.56225586 29.11352539 C82.40112778 29.11344986 81.23999969 29.11337433 80.04368591 29.11329651 C78.14840904 29.10555458 78.14840904 29.10555458 76.21484375 29.09765625 C74.92888809 29.0962413 73.64293243 29.09482635 72.31800842 29.09336853 C68.89356557 29.08954418 65.46916491 29.07971462 62.04473877 29.06866455 C58.55261822 29.05844864 55.06049067 29.05381582 51.56835938 29.04882812 C44.71220228 29.03862247 37.85616115 29.01905077 31 29 C31 37.91 31 46.82 31 56 C36.18009766 55.98259766 36.18009766 55.98259766 41.46484375 55.96484375 C44.79418852 55.95705431 48.12353229 55.95097691 51.45288086 55.94506836 C53.77417451 55.94002667 56.09546497 55.93319349 58.41674805 55.92456055 C61.74528795 55.91248775 65.07378602 55.90677021 68.40234375 55.90234375 C69.44712387 55.89718246 70.49190399 55.89202118 71.56834412 55.88670349 C72.52926468 55.88662796 73.49018524 55.88655243 74.48022461 55.88647461 C75.33071884 55.884254 76.18121307 55.88203339 77.05747986 55.87974548 C79 56 79 56 80 57 C80.08748207 58.92667507 80.10697334 60.85651861 80.09765625 62.78515625 C80.09282227 64.53989258 80.09282227 64.53989258 80.08789062 66.33007812 C80.07532227 68.17762695 80.07532227 68.17762695 80.0625 70.0625 C80.05798828 71.29806641 80.05347656 72.53363281 80.04882812 73.80664062 C80.03699608 76.87114117 80.02051173 79.93554721 80 83 C79.67 83 79.34 83 79 83 C79 74.75 79 66.5 79 58 C62.83 58 46.66 58 30 58 C30 47.77 30 37.54 30 27 C49.14 27 68.28 27 88 27 C88 18.42 88 9.84 88 1 C59.29 1 30.58 1 1 1 C1 44.23 1 87.46 1 132 C10.24 132 19.48 132 29 132 C29 115.83 29 99.66 29 83 C29.33 83 29.66 83 30 83 C30 99.5 30 116 30 133 C20.1 133 10.2 133 0 133 C0 89.11 0 45.22 0 0 Z " fill="#686B79" transform="translate(344,228)"/>
<path d="M0 0 C2.5 2.125 2.5 2.125 4 4 C4 4.66 4 5.32 4 6 C4.66 6 5.32 6 6 6 C6 8.31 6 10.62 6 13 C-6.54 13 -19.08 13 -32 13 C-30.79310345 4.55172414 -30.79310345 4.55172414 -27 0 C-24.75 -0.875 -24.75 -0.875 -23 -1 C-23 -1.66 -23 -2.32 -23 -3 C-14.72542093 -5.20655442 -7.15455682 -4.84663526 0 0 Z " fill="#F2F3F4" transform="translate(1096,293)"/>
<path d="M0 0 C0 0.66 0 1.32 0 2 C0.8353125 2.0928125 0.8353125 2.0928125 1.6875 2.1875 C5.01529218 3.35672428 6.73133832 5.35322804 9 8 C9 8.99 9 9.98 9 11 C9.66 11 10.32 11 11 11 C11 12.65 11 14.3 11 16 C-1.54 16 -14.08 16 -27 16 C-26.67 13.36 -26.34 10.72 -26 8 C-25.34 8 -24.68 8 -24 8 C-23.91492188 7.39671875 -23.82984375 6.7934375 -23.7421875 6.171875 C-22.5200872 2.5956236 -19.91162207 1.66095961 -16.6875 -0.0234375 C-11.25469802 -1.99756613 -5.44783021 -1.8159434 0 0 Z " fill="#F5F5F6" transform="translate(900,290)"/>
<path d="M0 0 C0 0.66 0 1.32 0 2 C0.58265625 2.08765625 1.1653125 2.1753125 1.765625 2.265625 C4.60456853 3.19870434 5.78562286 4.51699008 7.75 6.75 C8.67039062 7.76320313 8.67039062 7.76320313 9.609375 8.796875 C11 11 11 11 11 16 C-1.54 16 -14.08 16 -27 16 C-26.67 13.36 -26.34 10.72 -26 8 C-25.34 8 -24.68 8 -24 8 C-23.7525 7.195625 -23.505 6.39125 -23.25 5.5625 C-22 3 -22 3 -19.875 2.1875 C-19.25625 2.125625 -18.6375 2.06375 -18 2 C-18 1.34 -18 0.68 -18 0 C-12.10985609 -1.52003714 -5.85927818 -1.67407948 0 0 Z " fill="#FDFDFD" transform="translate(603,290)"/>
<path d="M0 0 C1.66716684 1.66716684 1.12744882 3.6730614 1.12939453 5.96289062 C1.13254669 7.02068726 1.13569885 8.07848389 1.13894653 9.16833496 C1.1369223 10.31934692 1.13489807 11.47035889 1.1328125 12.65625 C1.13424759 14.41515564 1.13424759 14.41515564 1.13571167 16.20959473 C1.1363937 18.69458062 1.13453784 21.17956829 1.13037109 23.66455078 C1.12502319 27.48343887 1.13031536 31.30220935 1.13671875 35.12109375 C1.13605797 37.52864609 1.13477682 39.93619837 1.1328125 42.34375 C1.13483673 43.49476196 1.13686096 44.64577393 1.13894653 45.83166504 C1.13579437 46.88946167 1.13264221 47.9472583 1.12939453 49.03710938 C1.12859894 49.97341187 1.12780334 50.90971436 1.12698364 51.87438965 C1 54 1 54 0 55 C-1.99958364 55.04080783 -4.00045254 55.04254356 -6 55 C-6 54.67 -6 54.34 -6 54 C-4.35 54 -2.7 54 -1 54 C-1 36.84 -1 19.68 -1 2 C-10.405 2.495 -10.405 2.495 -20 3 C-20 2.34 -20 1.68 -20 1 C-13.30803817 0.29953297 -6.73109922 -0.21713223 0 0 Z " fill="#BEC8E2" transform="translate(297,150)"/>
<path d="M0 0 C-1.0621875 -0.020625 -2.124375 -0.04125 -3.21875 -0.0625 C-12.93067566 -0.15572182 -12.93067566 -0.15572182 -20.9375 4.8125 C-23.41958499 7.72008528 -24.0402631 9.16105238 -25 13 C-13.45 13 -1.9 13 10 13 C9.505 11.02 9.505 11.02 9 9 C9.66 9.33 10.32 9.66 11 10 C11 11.65 11 13.3 11 15 C-1.54 15 -14.08 15 -27 15 C-26.67 12.36 -26.34 9.72 -26 7 C-25.34 7 -24.68 7 -24 7 C-23.7525 6.195625 -23.505 5.39125 -23.25 4.5625 C-22 2 -22 2 -19.875 1.1875 C-19.25625 1.125625 -18.6375 1.06375 -18 1 C-18 0.34 -18 -0.32 -18 -1 C-11.93161477 -2.5660349 -5.55141971 -3.18482809 0 0 Z " fill="#B6B8BE" transform="translate(603,291)"/>
<path d="M0 0 C1.17949219 0.01804688 2.35898437 0.03609375 3.57421875 0.0546875 C4.92966797 0.08949219 4.92966797 0.08949219 6.3125 0.125 C6.36308145 7.49394815 6.39818333 14.86285178 6.42236328 22.23193359 C6.43244011 24.74041415 6.44610179 27.24888292 6.46337891 29.75732422 C6.48755337 33.35647488 6.49896612 36.95547067 6.5078125 40.5546875 C6.51813507 41.68180145 6.52845764 42.80891541 6.53909302 43.97018433 C6.53924408 45.01111237 6.53939514 46.05204041 6.53955078 47.12451172 C6.543992 48.04384491 6.54843323 48.9631781 6.55300903 49.91036987 C6.3125 52.125 6.3125 52.125 4.3125 54.125 C1.7109375 54.5390625 1.7109375 54.5390625 -1.3125 54.75 C-2.31539063 54.82476562 -3.31828125 54.89953125 -4.3515625 54.9765625 C-5.12242187 55.02554688 -5.89328125 55.07453125 -6.6875 55.125 C-6.3575 54.465 -6.0275 53.805 -5.6875 53.125 C-3.3775 53.125 -1.0675 53.125 1.3125 53.125 C1.3125 52.465 1.3125 51.805 1.3125 51.125 C2.3025 51.125 3.2925 51.125 4.3125 51.125 C4.3125 34.625 4.3125 18.125 4.3125 1.125 C-0.3075 1.455 -4.9275 1.785 -9.6875 2.125 C-6.05554504 -0.29630331 -4.30400652 -0.08522785 0 0 Z " fill="#8599C9" transform="translate(290.6875,223.875)"/>
<path d="M0 0 C0.66 0.33 1.32 0.66 2 1 C2.6328125 3.00390625 2.6328125 3.00390625 3.125 5.5625 C3.37636719 6.80193359 3.37636719 6.80193359 3.6328125 8.06640625 C4.0857088 11.6847586 4 15.35341409 4 19 C-6.89 19 -17.78 19 -29 19 C-29 18.01 -29 17.02 -29 16 C-29.66 16 -30.32 16 -31 16 C-31.33 13.69 -31.66 11.38 -32 9 C-31.01 9.495 -31.01 9.495 -30 10 C-30 10.99 -30 11.98 -30 13 C-29.34 13 -28.68 13 -28 13 C-28 14.32 -28 15.64 -28 17 C-17.77 17 -7.54 17 3 17 C2.01 11.39 1.02 5.78 0 0 Z " fill="#8A8B97" transform="translate(779,262)"/>
<path d="M0 0 C8.58 0 17.16 0 26 0 C25.67 3.3 25.34 6.6 25 10 C24.34 10 23.68 10 23 10 C22.84144531 10.61488281 22.68289063 11.22976563 22.51953125 11.86328125 C20.59005146 18.54716981 20.59005146 18.54716981 17.3125 21.0625 C16.1678125 21.5265625 16.1678125 21.5265625 15 22 C15.33 21.01 15.66 20.02 16 19 C16.66 19 17.32 19 18 19 C18.13277344 18.42765625 18.26554688 17.8553125 18.40234375 17.265625 C18.99380317 15.02349125 19.73288854 12.91420381 20.5625 10.75 C20.83191406 10.04359375 21.10132813 9.3371875 21.37890625 8.609375 C21.58386719 8.07828125 21.78882813 7.5471875 22 7 C22.66 7 23.32 7 24 7 C24 5.35 24 3.7 24 2 C16.08 2.33 8.16 2.66 0 3 C-0.66 4.32 -1.32 5.64 -2 7 C-2.99 6.67 -3.98 6.34 -5 6 C-4.67 5.34 -4.34 4.68 -4 4 C-3.34 4 -2.68 4 -2 4 C-1.34 2.68 -0.68 1.36 0 0 Z " fill="#545767" transform="translate(614,330)"/>
<path d="M0 0 C0.99 0.33 1.98 0.66 3 1 C3 17.17 3 33.34 3 50 C-12 50 -12 50 -18 49 C-18 48.34 -18 47.68 -18 47 C-19.65 46.67 -21.3 46.34 -23 46 C-19.93109813 44.46554906 -17.29905734 45.45015711 -14 46 C-14 46.66 -14 47.32 -14 48 C-8.72 48.33 -3.44 48.66 2 49 C1.88185779 42.50369772 1.75761675 36.00755181 1.62768555 29.51147461 C1.58433448 27.30089502 1.54265954 25.09028191 1.50268555 22.87963867 C1.44498734 19.70481251 1.38129138 16.53015514 1.31640625 13.35546875 C1.29969376 12.36475876 1.28298126 11.37404877 1.26576233 10.35331726 C1.24581711 9.43258926 1.22587189 8.51186127 1.20532227 7.56323242 C1.18200584 6.34744759 1.18200584 6.34744759 1.15821838 5.10710144 C1.07190279 2.80853317 1.07190279 2.80853317 0 0 Z " fill="#91A3CE" transform="translate(294,338)"/>
<path d="M0 0 C0 9.9 0 19.8 0 30 C-0.33 30 -0.66 30 -1 30 C-1 20.43 -1 10.86 -1 1 C-14.24597494 2.33372504 -14.24597494 2.33372504 -23 10 C-23.33 10.66 -23.66 11.32 -24 12 C-24.66 12 -25.32 12 -26 12 C-26.66 13.32 -27.32 14.64 -28 16 C-27.52651586 11.8333396 -26.95303159 9.07115285 -24 6 C-23.34 6 -22.68 6 -22 6 C-22 5.34 -22 4.68 -22 4 C-20.35 3.67 -18.7 3.34 -17 3 C-17 2.34 -17 1.68 -17 1 C-11.61483519 -0.79505494 -5.67646212 0 0 0 Z " fill="#676A78" transform="translate(1200,268)"/>
<path d="M0 0 C0.66 0.33 1.32 0.66 2 1 C1.79503906 1.71542969 1.59007812 2.43085938 1.37890625 3.16796875 C-2.76654602 18.50019174 -3.24675232 35.27273379 -1 51 C-1.66 50.67 -2.32 50.34 -3 50 C-4.36890237 43.73095031 -4.19227635 37.32777929 -4.1875 30.9375 C-4.18669434 29.82802002 -4.18588867 28.71854004 -4.18505859 27.57543945 C-4.03269606 7.13346657 -4.03269606 7.13346657 0 0 Z " fill="#565968" transform="translate(657,264)"/>
<path d="M0 0 C2.61376953 -0.34057617 2.61376953 -0.34057617 5.8828125 -0.29296875 C7.04941406 -0.28330078 8.21601562 -0.27363281 9.41796875 -0.26367188 C10.64128906 -0.23853516 11.86460938 -0.21339844 13.125 -0.1875 C14.35605469 -0.17396484 15.58710937 -0.16042969 16.85546875 -0.14648438 C19.90407843 -0.11103543 22.951825 -0.06162079 26 0 C25.67 1.65 25.34 3.3 25 5 C24.505 4.01 24.505 4.01 24 3 C16.08 2.67 8.16 2.34 0 2 C-0.33 3.32 -0.66 4.64 -1 6 C-3.4375 7.8125 -3.4375 7.8125 -6 9 C-6.66 8.67 -7.32 8.34 -8 8 C-6.50260417 6.79557292 -5.00520833 5.59114583 -3.5078125 4.38671875 C-1.74707893 2.87729455 -1.74707893 2.87729455 0 0 Z " fill="#525565" transform="translate(1102,330)"/>
<path d="M0 0 C1.16660156 0.00322266 2.33320312 0.00644531 3.53515625 0.00976562 C4.75847656 0.01814453 5.98179687 0.02652344 7.2421875 0.03515625 C8.47324219 0.03966797 9.70429687 0.04417969 10.97265625 0.04882812 C14.02088142 0.06064295 17.06901064 0.07711597 20.1171875 0.09765625 C19.3671875 7.72265625 19.3671875 7.72265625 17.1171875 11.09765625 C17.4471875 8.12765625 17.7771875 5.15765625 18.1171875 2.09765625 C9.8671875 2.09765625 1.6171875 2.09765625 -6.8828125 2.09765625 C-7.2128125 3.41765625 -7.5428125 4.73765625 -7.8828125 6.09765625 C-8.5428125 5.76765625 -9.2028125 5.43765625 -9.8828125 5.09765625 C-7.52638896 -0.12013873 -5.55386167 -0.02696049 0 0 Z " fill="#5B5E6D" transform="translate(916.8828125,329.90234375)"/>
<path d="M0 0 C0.66 0.33 1.32 0.66 2 1 C0.88121617 2.17262904 -0.24523051 3.33795138 -1.375 4.5 C-2.00148438 5.1496875 -2.62796875 5.799375 -3.2734375 6.46875 C-5 8 -5 8 -7 8 C-7.33 9.98 -7.66 11.96 -8 14 C3.88 14 15.76 14 28 14 C28.33 12.68 28.66 11.36 29 10 C29 11.65 29 13.3 29 15 C16.46 15 3.92 15 -9 15 C-8.67 12.36 -8.34 9.72 -8 7 C-7.34 7 -6.68 7 -6 7 C-5.9071875 6.1028125 -5.9071875 6.1028125 -5.8125 5.1875 C-4.66061101 2.08626042 -2.93240408 1.35891897 0 0 Z " fill="#92949D" transform="translate(882,291)"/>
<path d="M0 0 C0.66 0.33 1.32 0.66 2 1 C2 1.66 2 2.32 2 3 C2.66 3 3.32 3 4 3 C4 5.31 4 7.62 4 10 C-8.54 10 -21.08 10 -34 10 C-33.67 7.69 -33.34 5.38 -33 3 C-32.34 2.67 -31.68 2.34 -31 2 C-31.33 4.31 -31.66 6.62 -32 9 C-20.45 9 -8.9 9 3 9 C2.01 6.03 1.02 3.06 0 0 Z " fill="#9496A0" transform="translate(1098,296)"/>
<path d="M0 0 C0.66 0.33 1.32 0.66 2 1 C1.01 1.33 0.02 1.66 -1 2 C-1 2.66 -1 3.32 -1 4 C-1.99 4.33 -2.98 4.66 -4 5 C-5.64477675 6.66047001 -5.64477675 6.66047001 -7.25 8.6875 C-10.54432023 12.58589601 -14.04956162 15.77515235 -18 19 C-18 15.25983417 -17.0658409 14.54723807 -14.625 11.8125 C-13.68527344 10.73935547 -13.68527344 10.73935547 -12.7265625 9.64453125 C-11 8 -11 8 -9 8 C-9 7.34 -9 6.68 -9 6 C-5.53846154 3 -5.53846154 3 -3 3 C-3 2.34 -3 1.68 -3 1 C-2.01 0.67 -1.02 0.34 0 0 Z " fill="#5B5E6D" transform="translate(871,268)"/>
<path d="M0 0 C0 3.19610552 -0.54671542 4.41717626 -2 7.1875 C-2.37125 7.90292969 -2.7425 8.61835938 -3.125 9.35546875 C-3.41375 9.89816406 -3.7025 10.44085938 -4 11 C-4.66 11 -5.32 11 -6 11 C-6.0825 12.11375 -6.165 13.2275 -6.25 14.375 C-6.78384931 18.8106597 -8.33546081 22.5046853 -10.078125 26.58984375 C-11.2896149 29.75717116 -11.70722707 32.63311133 -12 36 C-12.66 36 -13.32 36 -14 36 C-13.59060025 29.23784552 -12.43046191 23.32837252 -10 17 C-9.34 17 -8.68 17 -8 17 C-7.67 14.69 -7.34 12.38 -7 10 C-6.34 10 -5.68 10 -5 10 C-4.9175 9.46375 -4.835 8.9275 -4.75 8.375 C-3.73623902 5.1647569 -1.92839451 2.73707608 0 0 Z " fill="#ADBADA" transform="translate(212,249)"/>
<path d="M0 0 C0.66 0.33 1.32 0.66 2 1 C-2.60136502 6.53601728 -7.46398272 11.39863498 -13 16 C-13.33 15.34 -13.66 14.68 -14 14 C-12.89718873 12.72799029 -11.79269231 11.45744147 -10.6875 10.1875 C-10.07261719 9.47980469 -9.45773437 8.77210938 -8.82421875 8.04296875 C-5.55088953 4.3771204 -5.55088953 4.3771204 -4 3 C-3.34 3 -2.68 3 -2 3 C-2 2.34 -2 1.68 -2 1 C-1.34 0.67 -0.68 0.34 0 0 Z " fill="#4C4F60" transform="translate(569,271)"/>
<path d="M0 0 C3.60409919 -0.05800828 7.20807851 -0.09359869 10.8125 -0.125 C11.83666016 -0.14175781 12.86082031 -0.15851563 13.91601562 -0.17578125 C14.89892578 -0.18222656 15.88183594 -0.18867188 16.89453125 -0.1953125 C17.80050049 -0.20578613 18.70646973 -0.21625977 19.63989258 -0.22705078 C22 0 22 0 25 2 C24.44650879 1.98952637 23.89301758 1.97905273 23.32275391 1.96826172 C9.03572158 1.65163147 9.03572158 1.65163147 -5 4 C-5 3.34 -5 2.68 -5 2 C-3.35 2 -1.7 2 0 2 C0 1.34 0 0.68 0 0 Z " fill="#C5C6CB" transform="translate(1071,264)"/>
<path d="M0 0 C0.66 0 1.32 0 2 0 C2 1.65 2 3.3 2 5 C2.66 5 3.32 5 4 5 C4.33 8.3 4.66 11.6 5 15 C5.66 15 6.32 15 7 15 C7.33 17.64 7.66 20.28 8 23 C6 22 6 22 5.1484375 20.109375 C2.58490566 12.28930818 2.58490566 12.28930818 3 8 C2.34 8 1.68 8 1 8 C0.67 5.36 0.34 2.72 0 0 Z " fill="#7B7E8A" transform="translate(958,328)"/>
<path d="M0 0 C0.66 0.33 1.32 0.66 2 1 C1.43410156 1.48210937 0.86820313 1.96421875 0.28515625 2.4609375 C-0.44832031 3.09257812 -1.18179687 3.72421875 -1.9375 4.375 C-2.66839844 5.00148438 -3.39929687 5.62796875 -4.15234375 6.2734375 C-6.08380906 7.87747714 -6.08380906 7.87747714 -7 10 C-7.66 10 -8.32 10 -9 10 C-9.66 11.32 -10.32 12.64 -11 14 C-10.52651586 9.8333396 -9.95303159 7.07115285 -7 4 C-6.34 4 -5.68 4 -5 4 C-5 3.34 -5 2.68 -5 2 C-2.625 0.9375 -2.625 0.9375 0 0 Z " fill="#585B6B" transform="translate(1183,270)"/>
<path d="M0 0 C-0.886875 0.556875 -1.77375 1.11375 -2.6875 1.6875 C-5.84279378 3.77853792 -8.39868111 6.24566235 -11 9 C-11.66 8.67 -12.32 8.34 -13 8 C-9.77305298 2.31442668 -7.1131423 -2.20752692 0 0 Z " fill="#45485A" transform="translate(463,227)"/>
<path d="M0 0 C0.33 0 0.66 0 1 0 C1.02685412 2.31243792 1.04632841 4.6249627 1.0625 6.9375 C1.07410156 8.22527344 1.08570313 9.51304687 1.09765625 10.83984375 C1 14 1 14 0 15 C-1.84891946 15.23363881 -3.70488031 15.41303635 -5.5625 15.5625 C-7.08037109 15.68818359 -7.08037109 15.68818359 -8.62890625 15.81640625 C-9.41136719 15.87699219 -10.19382812 15.93757813 -11 16 C-10.67 15.34 -10.34 14.68 -10 14 C-7.69 14 -5.38 14 -3 14 C-3 13.34 -3 12.68 -3 12 C-2.01 12 -1.02 12 0 12 C0 8.04 0 4.08 0 0 Z " fill="#8498C8" transform="translate(295,263)"/>
<path d="M0 0 C2.97 0.33 5.94 0.66 9 1 C9 1.66 9 2.32 9 3 C12.63 3.33 16.26 3.66 20 4 C20 4.33 20 4.66 20 5 C14.87416389 5.10251672 10.05002222 5.03590199 5 4 C5 3.34 5 2.68 5 2 C3.35 1.67 1.7 1.34 0 1 C0 0.67 0 0.34 0 0 Z " fill="#B3C0DD" transform="translate(271,383)"/>
<path d="M0 0 C0.66 0.33 1.32 0.66 2 1 C0.68 6.28 -0.64 11.56 -2 17 C-2.33 17 -2.66 17 -3 17 C-3.34548714 10.66606918 -2.29342747 5.89738492 0 0 Z " fill="#80828E" transform="translate(657,264)"/>
<path d="M0 0 C0.33 1.32 0.66 2.64 1 4 C0.34 4 -0.32 4 -1 4 C-1.15855469 4.61488281 -1.31710937 5.22976563 -1.48046875 5.86328125 C-3.40994854 12.54716981 -3.40994854 12.54716981 -6.6875 15.0625 C-7.450625 15.371875 -8.21375 15.68125 -9 16 C-8.67 15.01 -8.34 14.02 -8 13 C-7.34 13 -6.68 13 -6 13 C-5.79697266 12.13955078 -5.79697266 12.13955078 -5.58984375 11.26171875 C-5.01562653 9.05991893 -4.33702456 6.95147198 -3.5625 4.8125 C-3.19318359 3.77029297 -3.19318359 3.77029297 -2.81640625 2.70703125 C-2 1 -2 1 0 0 Z " fill="#848691" transform="translate(638,336)"/>
<path d="M0 0 C2.06578763 3.09868145 2.74691358 5.34976306 3.625 8.9375 C3.88539063 9.97777344 4.14578125 11.01804687 4.4140625 12.08984375 C5 15 5 15 5 19 C4.34 19 3.68 19 3 19 C3 17.02 3 15.04 3 13 C2.34 13 1.68 13 1 13 C0.67 8.71 0.34 4.42 0 0 Z " fill="#5C5F6E" transform="translate(975,282)"/>
<path d="M0 0 C0.66 0 1.32 0 2 0 C1.53444296 6.40140935 -0.14711836 11.26769829 -3 17 C-4.3609623 14.2780754 -3.70366248 12.8168043 -3.0625 9.875 C-2.86785156 8.96492188 -2.67320313 8.05484375 -2.47265625 7.1171875 C-2.31667969 6.41851562 -2.16070313 5.71984375 -2 5 C-1.34 5 -0.68 5 0 5 C0 3.35 0 1.7 0 0 Z " fill="#878994" transform="translate(1030,281)"/>
<path d="M0 0 C0.66 0.33 1.32 0.66 2 1 C0.84941444 6.39795989 -0.42421759 11.70987333 -2 17 C-2.66 17 -3.32 17 -4 17 C-3.45018084 10.95198929 -2.09570426 5.69398894 0 0 Z " fill="#737582" transform="translate(553,287)"/>
<path d="M0 0 C0.66 0.33 1.32 0.66 2 1 C0.5665848 2.15093925 -0.87188909 3.29558035 -2.3125 4.4375 C-3.11300781 5.07558594 -3.91351563 5.71367187 -4.73828125 6.37109375 C-7 8 -7 8 -10 9 C-10 9.66 -10 10.32 -10 11 C-10.66 10.67 -11.32 10.34 -12 10 C-10.71937515 8.2925002 -9.38232443 6.62626404 -8 5 C-7.34 5 -6.68 5 -6 5 C-6 4.34 -6 3.68 -6 3 C-5.01 3 -4.02 3 -3 3 C-3 2.34 -3 1.68 -3 1 C-2.01 0.67 -1.02 0.34 0 0 Z " fill="#C7D0E6" transform="translate(281,279)"/>
<path d="M0 0 C3.09423168 3.09423168 3.93706005 6.5523812 4.125 10.875 C4.08375 11.57625 4.0425 12.2775 4 13 C4.66 13.33 5.32 13.66 6 14 C5.01 14 4.02 14 3 14 C1.20724134 10.88089144 0.65709282 8.32317572 0.375 4.75 C0.30023437 3.85796875 0.22546875 2.9659375 0.1484375 2.046875 C0.09945312 1.37140625 0.05046875 0.6959375 0 0 Z " fill="#7B7D89" transform="translate(983,316)"/>
<path d="M0 0 C1.6077072 4.01926801 0.34539351 7.03462964 -1 11 C-1.62469505 12.35350594 -2.2716331 13.69934483 -3 15 C-3 12.36 -3 9.72 -3 7 C-2.34 7 -1.68 7 -1 7 C-0.67 4.69 -0.34 2.38 0 0 Z " fill="#7D7F8B" transform="translate(992,314)"/>
<path d="M0 0 C0.99 0.33 1.98 0.66 3 1 C3.66 5.29 4.32 9.58 5 14 C4.34 14 3.68 14 3 14 C2.67 10.7 2.34 7.4 2 4 C1.34 4 0.68 4 0 4 C0 2.68 0 1.36 0 0 Z " fill="#6D707D" transform="translate(953,312)"/>
<path d="M0 0 C-2.64 0.33 -5.28 0.66 -8 1 C-8 1.66 -8 2.32 -8 3 C-10.31 3.33 -12.62 3.66 -15 4 C-12.59594933 1.01897717 -11.29438525 0.06833943 -7.5 -0.8125 C-4.60071148 -0.96781903 -2.68958436 -0.96825037 0 0 Z " fill="#787A87" transform="translate(589,266)"/>
<path d="M0 0 C-2.31 2.31 -4.62 4.62 -7 7 C-7.66 6.67 -8.32 6.34 -9 6 C-4.625 -2.3125 -4.625 -2.3125 0 0 Z " fill="#C6C7CC" transform="translate(884,292)"/>
<path d="M0 0 C0.33 0.99 0.66 1.98 1 3 C-1.97 5.475 -1.97 5.475 -5 8 C-5.66 7.67 -6.32 7.34 -7 7 C-4.69 4.69 -2.38 2.38 0 0 Z " fill="#D0D8EA" transform="translate(229,229)"/>
<path d="M0 0 C0.6875 1.8125 0.6875 1.8125 1 4 C-0.64504011 6.46756016 -1.80299352 6.94960299 -4.6875 7.6875 C-5.8321875 7.8421875 -5.8321875 7.8421875 -7 8 C-6.21625 7.236875 -5.4325 6.47375 -4.625 5.6875 C-1.92742283 3.09108195 -1.92742283 3.09108195 0 0 Z " fill="#494C5D" transform="translate(1101,331)"/>
<path d="M0 0 C-3.00617269 3.00617269 -5.82381598 2.59585316 -10 3 C-6.74534559 -0.25465441 -4.4822096 -1.60078914 0 0 Z " fill="#8FA2CD" transform="translate(262,157)"/>
<path d="M0 0 C2.31 0.33 4.62 0.66 7 1 C7 1.66 7 2.32 7 3 C7.99 3.33 8.98 3.66 10 4 C9.01 4.495 9.01 4.495 8 5 C6.0546875 4.22265625 6.0546875 4.22265625 3.875 3.0625 C3.15054688 2.68222656 2.42609375 2.30195313 1.6796875 1.91015625 C1.12539063 1.60980469 0.57109375 1.30945313 0 1 C0 0.67 0 0.34 0 0 Z " fill="#737582" transform="translate(687,356)"/>
</svg>
