<?xml version="1.0" encoding="UTF-8"?>
<svg version="1.1" xmlns="http://www.w3.org/2000/svg" width="1740" height="546">
<!-- <path d="M0 0 C409.2 0 818.4 0 1240 0 C1240 180.18 1240 360.36 1240 546 C830.8 546 421.6 546 0 546 C0 365.82 0 185.64 0 0 Z " fill="#12162D" transform="translate(0,0)"/> -->
<path d="M0 0 C1 1 1 1 1.12025452 3.13233948 C1.11803391 4.07165817 1.11581329 5.01097687 1.11352539 5.97875977 C1.11344986 7.03978409 1.11337433 8.10080841 1.11329651 9.19398499 C1.10813522 10.348134 1.10297394 11.50228302 1.09765625 12.69140625 C1.09553383 14.4538694 1.09553383 14.4538694 1.09336853 16.25193787 C1.08774992 20.02215064 1.07519426 23.79230504 1.0625 27.5625 C1.0574874 30.11132727 1.05292408 32.66015547 1.04882812 35.20898438 C1.03777444 41.47267633 1.02101821 47.73633399 1 54 C0.25722305 54.07713226 -0.48555389 54.15426453 -1.25083923 54.23373413 C-4.65649179 54.59240181 -8.06060842 54.96406831 -11.46484375 55.3359375 C-12.63317749 55.45702881 -13.80151123 55.57812012 -15.00524902 55.70288086 C-24.42574436 56.74647363 -32.44926851 58.80448712 -41 63 C-42.10456543 63.53947266 -42.10456543 63.53947266 -43.23144531 64.08984375 C-50.28001743 67.58617096 -56.86578667 71.04328649 -63 76 C-63.66 76 -64.32 76 -65 76 C-65 76.66 -65 77.32 -65 78 C-66.390625 79.33203125 -66.390625 79.33203125 -68.25 80.8125 C-71.26768291 83.29370595 -73.56795824 85.9374289 -76 89 C-76.66 89 -77.32 89 -78 89 C-78.4021875 90.3921875 -78.4021875 90.3921875 -78.8125 91.8125 C-79.93460187 94.82445764 -80.6579962 95.96347496 -83 98 C-83.33 98.66 -83.66 99.32 -84 100 C-84.66 100 -85.32 100 -86 100 C-86.33 101.98 -86.66 103.96 -87 106 C-87.66 106 -88.32 106 -89 106 C-89.26176025 106.89464966 -89.26176025 106.89464966 -89.52880859 107.80737305 C-90.87112354 112.34439755 -92.26733109 116.85174401 -93.7890625 121.33203125 C-94.09070313 122.23373047 -94.39234375 123.13542969 -94.703125 124.06445312 C-95.31497527 125.88833728 -95.93729795 127.70874351 -96.5703125 129.52539062 C-100.93529718 142.7426395 -100.18706283 156.86979096 -100.31640625 170.64453125 C-100.33702533 172.50925606 -100.3580229 174.37397672 -100.37937927 176.23869324 C-100.43408926 181.10304361 -100.48371971 185.96743249 -100.53222656 190.83184814 C-100.59174287 196.69168478 -100.65768455 202.55145234 -100.72252655 208.41123199 C-100.81989162 217.27411182 -100.90918702 226.13703972 -101 235 C-116.51 235 -132.02 235 -148 235 C-148.08021762 210.38656067 -148.08021762 210.38656067 -148.09765625 199.76757812 C-148.10953929 192.56613154 -148.12348446 185.36473655 -148.15087891 178.16333008 C-148.17286123 172.34720996 -148.18462123 166.53114531 -148.18975449 160.7149868 C-148.19340526 158.51342078 -148.20053173 156.31185725 -148.21146011 154.11031532 C-148.27887824 139.94509048 -147.62188839 126.07546492 -146 112 C-145.34 112 -144.68 112 -144 112 C-143.87625 111.195625 -143.7525 110.39125 -143.625 109.5625 C-140.94573979 94.29071682 -140.94573979 94.29071682 -137 88 C-135.515 87.505 -135.515 87.505 -134 87 C-134 85.68 -134 84.36 -134 83 C-133.34 83 -132.68 83 -132 83 C-131.34 79.7 -130.68 76.4 -130 73 C-128.02 72.505 -128.02 72.505 -126 72 C-125.979375 71.195625 -125.95875 70.39125 -125.9375 69.5625 C-124.76882696 65.12154246 -122.58518313 62.54868692 -119.69140625 59.05078125 C-117.86340704 56.90504805 -117.86340704 56.90504805 -116 54 C-115.34 54 -114.68 54 -114 54 C-113.67 53.01 -113.34 52.02 -113 51 C-112.34 51 -111.68 51 -111 51 C-110.67 50.01 -110.34 49.02 -110 48 C-109.34 48 -108.68 48 -108 48 C-108 47.34 -108 46.68 -108 46 C-104.28054101 42.08672304 -100.28139679 38.48539285 -95 37 C-95 36.34 -95 35.68 -95 35 C-92.03812728 32.82796 -89.49314009 31.16438003 -86 30 C-85.38898438 29.38253906 -84.77796875 28.76507813 -84.1484375 28.12890625 C-81.7969449 25.79879086 -79.549304 24.47337395 -76.625 22.9375 C-75.65820312 22.42832031 -74.69140625 21.91914063 -73.6953125 21.39453125 C-72.80585938 20.93433594 -71.91640625 20.47414062 -71 20 C-69.845 19.38125 -68.69 18.7625 -67.5 18.125 C-65 17 -65 17 -62 17 C-62 16.34 -62 15.68 -62 15 C-61.01 15 -60.02 15 -59 15 C-59 14.34 -59 13.68 -59 13 C-58.11957031 12.81824219 -57.23914063 12.63648438 -56.33203125 12.44921875 C-55.17058594 12.19785156 -54.00914062 11.94648438 -52.8125 11.6875 C-51.66394531 11.44386719 -50.51539063 11.20023438 -49.33203125 10.94921875 C-46.08224203 10.02342885 -43.82182586 8.81437196 -41 7 C-28.3223613 1.48682519 -13.75756668 -1.17866793 0 0 Z " fill="#5571B2" transform="translate(246,136)"/>
<path d="M0 0 C0 0.66 0 1.32 0 2 C0.56460938 2.10699219 1.12921875 2.21398437 1.7109375 2.32421875 C4.37679223 3.1112373 6.30766742 4.28182046 8.625 5.8125 C9.78902344 6.56466797 9.78902344 6.56466797 10.9765625 7.33203125 C13.13007054 9.10722031 13.79349398 10.54058388 15 13 C16.485 13.495 16.485 13.495 18 14 C19.82421875 16.21484375 19.82421875 16.21484375 21.6875 18.9375 C22.31011719 19.83339844 22.93273437 20.72929687 23.57421875 21.65234375 C25 24 25 24 25 26 C25.66 26 26.32 26 27 26 C27.47993156 28.54152435 27.95896727 31.08321222 28.4375 33.625 C28.57220703 34.33785156 28.70691406 35.05070312 28.84570312 35.78515625 C28.97783203 36.48769531 29.10996094 37.19023437 29.24609375 37.9140625 C29.42676392 38.8723999 29.42676392 38.8723999 29.61108398 39.85009766 C30.10164477 42.56188565 30.54694896 45.28169377 31 48 C20.11 48 9.22 48 -2 48 C-2 47.34 -2 46.68 -2 46 C-2.66 46 -3.32 46 -4 46 C-4.09796875 45.15695312 -4.1959375 44.31390625 -4.296875 43.4453125 C-4.44640625 42.34960938 -4.5959375 41.25390625 -4.75 40.125 C-4.95882812 38.48917969 -4.95882812 38.48917969 -5.171875 36.8203125 C-5.69823096 33.89940035 -5.69823096 33.89940035 -7.9296875 32.73828125 C-8.61289062 32.49464844 -9.29609375 32.25101563 -10 32 C-11.175625 31.0409375 -11.175625 31.0409375 -12.375 30.0625 C-19.51847539 24.44976934 -26.09617934 23.84251914 -34.8125 23.9375 C-35.99489258 23.94426758 -35.99489258 23.94426758 -37.20117188 23.95117188 C-39.13414761 23.96288688 -41.06708393 23.98082002 -43 24 C-43 24.66 -43 25.32 -43 26 C-43.6290625 26.11214844 -44.258125 26.22429687 -44.90625 26.33984375 C-52.57855139 28.10770838 -56.64160645 31.49763918 -61 38 C-64.52228671 44.43200182 -65.75846118 50.73283203 -66 58 C-66.05994141 59.58554687 -66.05994141 59.58554687 -66.12109375 61.203125 C-66.34360255 72.45945234 -64.7728152 81.67400165 -58 91 C-55.47280542 92.68852038 -55.47280542 92.68852038 -53 94 C-51.98758315 95.32392972 -50.98560611 96.65599167 -50 98 C-49.01 98.33 -48.02 98.66 -47 99 C-47 99.66 -47 100.32 -47 101 C-43.18764896 101.08809201 -39.37556447 101.1407549 -35.5625 101.1875 C-34.49322266 101.21263672 -33.42394531 101.23777344 -32.32226562 101.26367188 C-25.63457674 101.32502682 -20.17418403 100.6266193 -14 98 C-14 97.34 -14 96.68 -14 96 C-12.35511706 94.31183067 -10.68662458 92.64646685 -9 91 C-8.01 89.515 -8.01 89.515 -7 88 C-6.34 88 -5.68 88 -5 88 C-4.01 84.37 -3.02 80.74 -2 77 C9.22 77 20.44 77 32 77 C32 82.01632918 31.70572284 84.52247755 30 89 C29.34 89 28.68 89 28 89 C27.92652344 89.92232422 27.92652344 89.92232422 27.8515625 90.86328125 C27.77679687 91.67152344 27.70203125 92.47976563 27.625 93.3125 C27.55539062 94.11300781 27.48578125 94.91351563 27.4140625 95.73828125 C27 98 27 98 25 101 C24.34 101 23.68 101 23 101 C22.896875 101.556875 22.79375 102.11375 22.6875 102.6875 C21.85821592 105.4769101 20.65700944 107.6139064 19 110 C18.34 110 17.68 110 17 110 C16.773125 110.53625 16.54625 111.0725 16.3125 111.625 C14.54429911 114.82460161 12.46329797 117.29037223 10 120 C9.34 120 8.68 120 8 120 C8 120.66 8 121.32 8 122 C6.30729167 122.68359375 4.61458333 123.3671875 2.921875 124.05078125 C0.91763783 124.95793015 0.91763783 124.95793015 -0.90625 126.50390625 C-3.3241205 128.23160103 -5.38047347 128.8789231 -8.25 129.625 C-9.14203125 129.86476563 -10.0340625 130.10453125 -10.953125 130.3515625 C-18.33525222 131.9226306 -25.47987987 132.15573619 -33 132.125 C-33.94617188 132.12886719 -34.89234375 132.13273438 -35.8671875 132.13671875 C-41.33809488 132.12914132 -46.58790559 131.80415554 -52 131 C-52 130.34 -52 129.68 -52 129 C-52.99 129 -53.98 129 -55 129 C-55 128.34 -55 127.68 -55 127 C-55.556875 126.97421875 -56.11375 126.9484375 -56.6875 126.921875 C-62.32322493 126.50300355 -67.40359602 125.47210373 -72 122 C-72.31453125 121.35160156 -72.6290625 120.70320313 -72.953125 120.03515625 C-74.29986045 117.41706234 -75.77603198 116.6994103 -78.3125 115.25 C-82.9363099 112.31910114 -85.85175399 109.06295164 -88 104 C-88 103.01 -88 102.02 -88 101 C-88.66 101 -89.32 101 -90 101 C-98.96237797 90.1445785 -99.17979323 76.62894981 -99.1875 63.25 C-99.19974609 62.1465625 -99.21199219 61.043125 -99.22460938 59.90625 C-99.24135148 50.39673473 -98.47644268 40.93942404 -95 32 C-94.34 32 -93.68 32 -93 32 C-92.67 29.69 -92.34 27.38 -92 25 C-91.01 24.67 -90.02 24.34 -89 24 C-88.2265625 22.2984375 -88.2265625 22.2984375 -87.4375 20.5625 C-84.16505766 13.50828576 -77.51164186 7.19186945 -71 3 C-70.01 3 -69.02 3 -68 3 C-68 2.34 -68 1.68 -68 1 C-65.62794139 0.01315119 -63.25276513 -0.9645755 -60.875 -1.9375 C-60.20984375 -2.21529297 -59.5446875 -2.49308594 -58.859375 -2.77929688 C-58.20195313 -3.04677734 -57.54453125 -3.31425781 -56.8671875 -3.58984375 C-56.27019043 -3.83597412 -55.67319336 -4.08210449 -55.05810547 -4.33569336 C-38.61599548 -9.64280858 -15.26072298 -7.97148353 0 0 Z " fill="#F9F9FA" transform="translate(702,217)"/>
<path d="M0 0 C0 17.49 0 34.98 0 53 C-5.76772041 55.16289516 -9.64286012 56.45535751 -15.5 57.1875 C-17.34078125 57.42533203 -17.34078125 57.42533203 -19.21875 57.66796875 C-20.1365625 57.77753906 -21.054375 57.88710938 -22 58 C-22 58.66 -22 59.32 -22 60 C-22.763125 60.61875 -23.52625 61.2375 -24.3125 61.875 C-29.83038639 67.23612825 -30.18198488 76.35362728 -30.5 83.625 C-30.28684507 91.71519857 -27.42988342 97.83945578 -21.6875 103.5 C-20.800625 104.325 -19.91375 105.15 -19 106 C-19 106.66 -19 107.32 -19 108 C-18.01 108.33 -17.02 108.66 -16 109 C-16 109.66 -16 110.32 -16 111 C-14.845 111.103125 -13.69 111.20625 -12.5 111.3125 C-7.76908311 111.73490329 -4.84005098 113.18498088 0 115 C0 131.17 0 147.34 0 164 C-18.3203125 164 -18.3203125 164 -26.88671875 159.96875 C-29.08978695 158.91009713 -29.08978695 158.91009713 -31.875 158.0625 C-34.92974217 157.02388766 -37.85151446 155.84292618 -40.8125 154.5625 C-41.76769531 154.15128906 -42.72289062 153.74007812 -43.70703125 153.31640625 C-46 152 -46 152 -47 149 C-47.99 148.67 -48.98 148.34 -50 148 C-50 147.34 -50 146.68 -50 146 C-50.56976563 145.74476563 -51.13953125 145.48953125 -51.7265625 145.2265625 C-60.63585987 140.41982818 -68.19073037 131.31154798 -72 122 C-72 120.68 -72 119.36 -72 118 C-72.66 118 -73.32 118 -74 118 C-74.33 115.36 -74.66 112.72 -75 110 C-75.66 110 -76.32 110 -77 110 C-80.03901852 104.17521449 -80.3540919 99.51791392 -80 93 C-80.66 93 -81.32 93 -82 93 C-82.02934711 89.50001799 -82.04691445 86.00006821 -82.0625 82.5 C-82.07087891 81.51773438 -82.07925781 80.53546875 -82.08789062 79.5234375 C-82.13955778 64.02329244 -82.13955778 64.02329244 -79 59 C-78.34 59 -77.68 59 -77 59 C-77 57.35 -77 55.7 -77 54 C-76.34 54 -75.68 54 -75 54 C-74.938125 53.030625 -74.87625 52.06125 -74.8125 51.0625 C-74.13289912 46.17537016 -71.77409375 42.02718906 -69 38 C-68.01 37.505 -68.01 37.505 -67 37 C-65.99353315 35.24679968 -64.98915083 33.492208 -64.01171875 31.72265625 C-62.88985648 29.81245832 -61.75801502 28.35846615 -60 27 C-59.34 27 -58.68 27 -58 27 C-57.67 26.01 -57.34 25.02 -57 24 C-56.34 24 -55.68 24 -55 24 C-54.67 23.01 -54.34 22.02 -54 21 C-53.34 21 -52.68 21 -52 21 C-52 20.34 -52 19.68 -52 19 C-51.01 19 -50.02 19 -49 19 C-49 18.34 -49 17.68 -49 17 C-45.53846154 14 -45.53846154 14 -43 14 C-43 13.34 -43 12.68 -43 12 C-35.56319595 8.21636285 -28.74355282 4.89996976 -20.4296875 3.625 C-6.3375 0 -6.3375 0 0 0 Z " fill="#5570B2" transform="translate(247,209)"/>
<path d="M0 0 C29.7 0 59.4 0 90 0 C90 9.24 90 18.48 90 28 C89 29 89 29 86.63987732 29.12025452 C85.59396927 29.11803391 84.54806122 29.11581329 83.47045898 29.11352539 C82.28931015 29.11344986 81.10816132 29.11337433 79.89122009 29.11329651 C78.6058284 29.10813522 77.32043671 29.10297394 75.99609375 29.09765625 C74.0338662 29.09553383 74.0338662 29.09553383 72.03199768 29.09336853 C68.54837141 29.0895441 65.06478661 29.07971446 61.58117676 29.06866455 C58.02873302 29.05844882 54.47628241 29.05381586 50.92382812 29.04882812 C43.94918209 29.03862232 36.97465003 29.01905064 30 29 C30 38.57 30 48.14 30 58 C46.17 58 62.34 58 79 58 C79 66.25 79 74.5 79 83 C62.83 83 46.66 83 30 83 C30 99.5 30 116 30 133 C20.1 133 10.2 133 0 133 C0 89.11 0 45.22 0 0 Z " fill="#FDFDFD" transform="translate(294,213)"/>
<path d="M0 0 C1.06154297 0.0009668 1.06154297 0.0009668 2.14453125 0.00195312 C7.00019287 0.04189915 11.69228176 0.51073786 16.5 1.1875 C16.5 1.8475 16.5 2.5075 16.5 3.1875 C17.469375 3.373125 18.43875 3.55875 19.4375 3.75 C25.65284635 5.49687942 31.26557863 10.40464454 35.5 15.1875 C35.995 16.6725 35.995 16.6725 36.5 18.1875 C37.16 18.5175 37.82 18.8475 38.5 19.1875 C39.60392471 21.61496308 40.60711376 24.01506595 41.5625 26.5 C41.83126953 27.17740234 42.10003906 27.85480469 42.37695312 28.55273438 C46.50724537 39.0896146 45.5 43.81136936 45.5 57.1875 C24.05 57.1875 2.6 57.1875 -19.5 57.1875 C-18.84 60.4875 -18.18 63.7875 -17.5 67.1875 C-16.84 67.1875 -16.18 67.1875 -15.5 67.1875 C-13.83333333 68.85416667 -12.16666667 70.52083333 -10.5 72.1875 C-5.60667647 75.31202476 -0.08633798 74.4089533 5.5 74.1875 C6.32242187 74.15785156 7.14484375 74.12820313 7.9921875 74.09765625 C10.35162283 73.9716812 10.35162283 73.9716812 13.5 73.1875 C14.92481768 71.42127831 14.92481768 71.42127831 15.5 69.1875 C16.66918945 67.07519531 16.66918945 67.07519531 18.5 65.1875 C21.22729492 64.73339844 21.22729492 64.73339844 24.48046875 64.796875 C25.64384766 64.80976563 26.80722656 64.82265625 28.00585938 64.8359375 C29.22080078 64.86945313 30.43574219 64.90296875 31.6875 64.9375 C32.91404297 64.95554687 34.14058594 64.97359375 35.40429688 64.9921875 C38.43697759 65.03938876 41.46810087 65.10522323 44.5 65.1875 C44.17 68.8175 43.84 72.4475 43.5 76.1875 C42.84 76.1875 42.18 76.1875 41.5 76.1875 C41.17 77.8375 40.84 79.4875 40.5 81.1875 C39.84 81.1875 39.18 81.1875 38.5 81.1875 C38.12875 82.07695312 38.12875 82.07695312 37.75 82.984375 C36.31031137 85.5218262 34.84848507 86.72794102 32.5 88.4375 C31.448125 89.21867187 31.448125 89.21867187 30.375 90.015625 C28.5 91.1875 28.5 91.1875 26.5 91.1875 C26.5 91.8475 26.5 92.5075 26.5 93.1875 C13.19635815 99.3958662 -1.71136962 101.54675789 -16.16796875 98.07421875 C-23.68320748 95.21666567 -33.45522268 89.30232394 -37.68359375 82.19921875 C-38.5 80.1875 -38.5 80.1875 -38.5 77.1875 C-39.16 77.1875 -39.82 77.1875 -40.5 77.1875 C-41.31832722 75.29417466 -42.12942268 73.39772267 -42.9375 71.5 C-43.61619141 69.91638672 -43.61619141 69.91638672 -44.30859375 68.30078125 C-46.04607277 63.76054919 -46.62677496 59.69103045 -46.6328125 54.84375 C-46.63410156 53.84472656 -46.63539063 52.84570312 -46.63671875 51.81640625 C-46.63285156 50.78386719 -46.62898437 49.75132812 -46.625 48.6875 C-46.62886719 47.65496094 -46.63273438 46.62242187 -46.63671875 45.55859375 C-46.63542969 44.55957031 -46.63414062 43.56054688 -46.6328125 42.53125 C-46.63168457 41.62568359 -46.63055664 40.72011719 -46.62939453 39.78710938 C-46.49882431 37.16387981 -46.08070158 34.74558562 -45.5 32.1875 C-44.84 32.1875 -44.18 32.1875 -43.5 32.1875 C-43.17 29.5475 -42.84 26.9075 -42.5 24.1875 C-41.84 24.1875 -41.18 24.1875 -40.5 24.1875 C-40.17 22.2075 -39.84 20.2275 -39.5 18.1875 C-38.84 18.1875 -38.18 18.1875 -37.5 18.1875 C-37.231875 17.548125 -36.96375 16.90875 -36.6875 16.25 C-35.5 14.1875 -35.5 14.1875 -32.5 13.1875 C-32.5 12.5275 -32.5 11.8675 -32.5 11.1875 C-31.84 11.1875 -31.18 11.1875 -30.5 11.1875 C-30.5 10.5275 -30.5 9.8675 -30.5 9.1875 C-29.18 8.8575 -27.86 8.5275 -26.5 8.1875 C-26.5 7.5275 -26.5 6.8675 -26.5 6.1875 C-25.00292061 5.55553616 -23.50213297 4.93235607 -22 4.3125 C-21.1646875 3.96445313 -20.329375 3.61640625 -19.46875 3.2578125 C-12.82386968 0.86215828 -7.00713522 -0.1212528 0 0 Z " fill="#F8F8F9" transform="translate(1033.5,249.8125)"/>
<path d="M0 0 C1.13598633 0.00483398 1.13598633 0.00483398 2.29492188 0.00976562 C3.47344727 0.02233398 3.47344727 0.02233398 4.67578125 0.03515625 C5.47306641 0.03966797 6.27035156 0.04417969 7.09179688 0.04882812 C9.05732382 0.06059775 11.0228121 0.07853277 12.98828125 0.09765625 C12.98828125 0.75765625 12.98828125 1.41765625 12.98828125 2.09765625 C13.95765625 2.01515625 14.92703125 1.93265625 15.92578125 1.84765625 C20.79956838 1.80770718 24.72344476 3.9313901 28.98828125 6.09765625 C28.98828125 6.75765625 28.98828125 7.41765625 28.98828125 8.09765625 C29.73078125 8.34515625 30.47328125 8.59265625 31.23828125 8.84765625 C34.21851212 10.20230664 35.88747377 11.60781035 37.98828125 14.09765625 C37.98828125 14.75765625 37.98828125 15.41765625 37.98828125 16.09765625 C38.58640625 16.28328125 39.18453125 16.46890625 39.80078125 16.66015625 C43.01698219 18.77365972 43.64588022 21.58184403 44.98828125 25.09765625 C45.31828125 25.42765625 45.64828125 25.75765625 45.98828125 26.09765625 C46.02891957 27.7638274 46.03100225 29.4315372 45.98828125 31.09765625 C46.64828125 31.09765625 47.30828125 31.09765625 47.98828125 31.09765625 C49.98828125 38.09765625 49.98828125 38.09765625 49.98828125 57.09765625 C28.53828125 57.09765625 7.08828125 57.09765625 -15.01171875 57.09765625 C-13.65175536 62.63843501 -13.65175536 62.63843501 -12.01171875 68.09765625 C-10.52671875 68.59265625 -10.52671875 68.59265625 -9.01171875 69.09765625 C-9.01171875 69.75765625 -9.01171875 70.41765625 -9.01171875 71.09765625 C-4.25029302 73.53691124 0.26373991 73.46465542 5.48828125 73.47265625 C6.75091797 73.50939453 6.75091797 73.50939453 8.0390625 73.546875 C12.08536684 73.5659914 14.37887984 73.46952217 17.89453125 71.32421875 C20.01018745 69.23891137 20.01018745 69.23891137 21.23168945 66.98291016 C22.98828125 65.09765625 22.98828125 65.09765625 25.80737305 64.64355469 C27.48053589 64.67497559 27.48053589 64.67497559 29.1875 64.70703125 C30.39599609 64.71992188 31.60449219 64.7328125 32.84960938 64.74609375 C34.11224609 64.77960938 35.37488281 64.813125 36.67578125 64.84765625 C37.95001953 64.86570312 39.22425781 64.88375 40.53710938 64.90234375 C43.68824966 64.94955184 46.83789265 65.01539241 49.98828125 65.09765625 C49.98828125 66.41765625 49.98828125 67.73765625 49.98828125 69.09765625 C49.32828125 69.09765625 48.66828125 69.09765625 47.98828125 69.09765625 C47.80265625 70.73734375 47.80265625 70.73734375 47.61328125 72.41015625 C46.98828125 76.09765625 46.98828125 76.09765625 44.98828125 79.09765625 C44.32828125 79.09765625 43.66828125 79.09765625 42.98828125 79.09765625 C42.98828125 80.08765625 42.98828125 81.07765625 42.98828125 82.09765625 C40.39869922 85.0371818 38.73461611 86.84887796 34.98828125 88.09765625 C34.98828125 88.75765625 34.98828125 89.41765625 34.98828125 90.09765625 C33.66828125 90.42765625 32.34828125 90.75765625 30.98828125 91.09765625 C30.98828125 91.75765625 30.98828125 92.41765625 30.98828125 93.09765625 C19.21843901 101.16840521 2.07278016 100.58695359 -11.57421875 98.09765625 C-13.05691833 97.78040701 -14.53796457 97.45415834 -16.01171875 97.09765625 C-16.01171875 96.43765625 -16.01171875 95.77765625 -16.01171875 95.09765625 C-18.66400687 94.02240431 -21.29540329 93.00309474 -24.01171875 92.09765625 C-24.01171875 91.43765625 -24.01171875 90.77765625 -24.01171875 90.09765625 C-24.67171875 90.09765625 -25.33171875 90.09765625 -26.01171875 90.09765625 C-33.82553439 82.87430527 -38.2007599 74.46951151 -40.01171875 64.09765625 C-40.67171875 64.09765625 -41.33171875 64.09765625 -42.01171875 64.09765625 C-42.66703746 46.22056186 -43.09387635 31.0735449 -32.01171875 16.09765625 C-31.35171875 16.09765625 -30.69171875 16.09765625 -30.01171875 16.09765625 C-29.35171875 14.44765625 -28.69171875 12.79765625 -28.01171875 11.09765625 C-27.35171875 11.09765625 -26.69171875 11.09765625 -26.01171875 11.09765625 C-26.01171875 10.43765625 -26.01171875 9.77765625 -26.01171875 9.09765625 C-19.8112247 5.82265626 -13.72295853 3.12886993 -7.01171875 1.09765625 C-4.30455633 0.19526878 -2.77395107 -0.02085677 0 0 Z " fill="#F9F9FA" transform="translate(838.01171875,249.90234375)"/>
<path d="M0 0 C1.16208984 0.01353516 1.16208984 0.01353516 2.34765625 0.02734375 C4.23190843 0.05060612 6.11599832 0.0864636 8 0.125 C8 0.785 8 1.445 8 2.125 C8.9590625 2.00125 8.9590625 2.00125 9.9375 1.875 C17.86809219 2.52239528 24.70094666 7.60847036 31 12.125 C32.11955078 12.89650391 32.11955078 12.89650391 33.26171875 13.68359375 C33.83535156 14.15925781 34.40898438 14.63492187 35 15.125 C35 15.785 35 16.445 35 17.125 C35.66 17.125 36.32 17.125 37 17.125 C40.28571429 24.55357143 40.28571429 24.55357143 41 28.125 C41.66 28.125 42.32 28.125 43 28.125 C45.14111328 38.04676601 45 46.680857 45 57.125 C23.55 57.125 2.1 57.125 -20 57.125 C-19.34 60.755 -18.68 64.385 -18 68.125 C-16.68 68.785 -15.36 69.445 -14 70.125 C-12.32983484 71.11914593 -10.66279327 72.1185725 -9 73.125 C-3.2293841 76.01030795 6.79495311 74.50389931 13 73.125 C14.42481768 71.35877831 14.42481768 71.35877831 15 69.125 C16.16918945 67.01269531 16.16918945 67.01269531 18 65.125 C20.72729492 64.67089844 20.72729492 64.67089844 23.98046875 64.734375 C25.14384766 64.74726563 26.30722656 64.76015625 27.50585938 64.7734375 C28.72080078 64.80695313 29.93574219 64.84046875 31.1875 64.875 C32.41404297 64.89304687 33.64058594 64.91109375 34.90429688 64.9296875 C37.93697759 64.97688876 40.96810087 65.04272323 44 65.125 C43.67 68.425 43.34 71.725 43 75.125 C42.34 75.125 41.68 75.125 41 75.125 C41 75.785 41 76.445 41 77.125 C40.34 77.125 39.68 77.125 39 77.125 C38.773125 77.82625 38.54625 78.5275 38.3125 79.25 C36.66158712 82.86628535 34.7091165 85.21269976 32 88.125 C31.34 88.125 30.68 88.125 30 88.125 C30 88.785 30 89.445 30 90.125 C27.09451118 92.16669485 25.59857954 93.125 22 93.125 C22 93.785 22 94.445 22 95.125 C7.54002368 100.25817701 -6.00744347 100.36038792 -21 97.125 C-21 96.465 -21 95.805 -21 95.125 C-21.66 94.91875 -22.32 94.7125 -23 94.5 C-30.75978047 90.94343395 -36.41757167 85.28504427 -41 78.125 C-41 77.465 -41 76.805 -41 76.125 C-41.66 76.125 -42.32 76.125 -43 76.125 C-46.68738266 67.69669677 -47.40976657 59.91461332 -47.4375 50.8125 C-47.45200195 49.27432617 -47.45200195 49.27432617 -47.46679688 47.70507812 C-47.40713239 42.30368695 -46.92322057 37.89651804 -44.77319336 32.92797852 C-43.12450409 29.08346627 -42.24128657 24.91716027 -41.16015625 20.8828125 C-40 18.125 -40 18.125 -37.9375 16.87109375 C-37.298125 16.62488281 -36.65875 16.37867188 -36 16.125 C-35.31731862 14.79979497 -34.6492959 13.46687818 -34 12.125 C-33.01 11.795 -32.02 11.465 -31 11.125 C-31 10.465 -31 9.805 -31 9.125 C-29.68 8.795 -28.36 8.465 -27 8.125 C-27 7.465 -27 6.805 -27 6.125 C-25.50292061 5.49303616 -24.00213297 4.86985607 -22.5 4.25 C-21.6646875 3.90195313 -20.829375 3.55390625 -19.96875 3.1953125 C-13.11771962 0.72533576 -7.22224244 -0.1627195 0 0 Z " fill="#F9F9FA" transform="translate(546,249.875)"/>
<path d="M0 0 C11.22 0 22.44 0 34 0 C36.4375 11.4375 36.4375 11.4375 37.20092773 15.04858398 C37.50172241 16.44572632 37.50172241 16.44572632 37.80859375 17.87109375 C38.01282959 18.82943115 38.21706543 19.78776855 38.42749023 20.77514648 C38.78799514 22.95752262 38.78799514 22.95752262 40 24 C40.35246827 25.65867421 40.65646736 27.32773965 40.9375 29 C41.53667502 32.43644495 42.15880541 35.84970027 42.9375 39.25 C43.89126851 43.44658143 44.76874903 47.65759943 45.625 51.875 C45.88539063 53.15117187 46.14578125 54.42734375 46.4140625 55.7421875 C47 59 47 59 47 62 C48.32 62 49.64 62 51 62 C51.03867187 60.74509766 51.03867187 60.74509766 51.078125 59.46484375 C51.55335559 49.71181593 52.45746184 38.31380725 58 30 C58.42064891 27.9709876 58.76841476 25.92618275 59.0625 23.875 C59.90042076 18.09957924 59.90042076 18.09957924 61 17 C61.37436127 14.33267593 61.70570409 11.67625345 62 9 C62.86486486 1.13513514 62.86486486 1.13513514 64 0 C66.3756852 -0.0883967 68.72208674 -0.11530305 71.09765625 -0.09765625 C72.16094398 -0.09553383 72.16094398 -0.09553383 73.24571228 -0.09336853 C75.51801712 -0.08775443 77.79022475 -0.07519963 80.0625 -0.0625 C81.59960796 -0.05748681 83.13671745 -0.05292359 84.67382812 -0.04882812 C88.44925642 -0.03778042 92.22461171 -0.02050641 96 0 C95.39402965 5.24082468 94.57284297 9.9669025 93 15 C92.34 15 91.68 15 91 15 C90.814375 16.5159375 90.814375 16.5159375 90.625 18.0625 C90.0222073 21.86009398 89.06999842 25.30944405 88 29 C87.60128811 30.52756074 87.20695953 32.0562705 86.81640625 33.5859375 C86.61080078 34.37097656 86.40519531 35.15601563 86.19335938 35.96484375 C85.76728842 37.59261949 85.3508483 39.22294215 84.94335938 40.85546875 C84.63301758 42.02142578 84.63301758 42.02142578 84.31640625 43.2109375 C84.13537354 43.91524902 83.95434082 44.61956055 83.76782227 45.34521484 C83.51444092 45.89129395 83.26105957 46.43737305 83 47 C81.515 47.495 81.515 47.495 80 48 C80 49.65 80 51.3 80 53 C79.34 53 78.68 53 78 53 C77.98582031 53.70382812 77.97164062 54.40765625 77.95703125 55.1328125 C77.59393255 62.64993696 75.89501969 68.87290027 73.15625 75.87109375 C72.1468862 78.60251403 71.47128691 81.1347898 71 84 C70.34 84 69.68 84 69 84 C68.67 86.97 68.34 89.94 68 93 C55.46 93 42.92 93 30 93 C28.64560332 90.29120665 28.93498549 87.99066732 29 85 C28.34 85 27.68 85 27 85 C27 83.68 27 82.36 27 81 C26.34 81 25.68 81 25 81 C23.22321082 76.20266921 21.85492488 71.5615247 21.0625 66.5 C20.31613167 62.08296775 19.07082769 58.47105562 17.14453125 54.4453125 C15.768354 51.50508398 14.56311336 48.52110241 13.375 45.5 C12.97023438 44.4790625 12.56546875 43.458125 12.1484375 42.40625 C11.27705267 39.82173446 10.63120413 37.44810568 10.078125 34.796875 C8.70974609 28.31177055 6.49894855 22.09508498 4.390625 15.8203125 C4.08382812 14.88445312 3.77703125 13.94859375 3.4609375 12.984375 C3.18040527 12.14616211 2.89987305 11.30794922 2.61083984 10.44433594 C1.96795495 7.87176859 1.88981837 5.64082381 2 3 C1.34 3 0.68 3 0 3 C0 2.01 0 1.02 0 0 Z " fill="#F9F9F9" transform="translate(889,253)"/>
<path d="M0 0 C9.24 0 18.48 0 28 0 C28.02505615 3.1755249 28.0501123 6.3510498 28.07592773 9.62280273 C28.15922259 20.08827071 28.24793115 30.55368768 28.33933926 41.01908779 C28.39461859 47.36728067 28.44804646 53.7154781 28.49731445 60.0637207 C28.54488427 66.1845268 28.59722412 72.30527486 28.65294075 78.42601204 C28.67339787 80.76689277 28.69210525 83.10778943 28.70907402 85.44869804 C28.73304397 88.71512519 28.76310829 91.98144148 28.79467773 95.24780273 C28.80331093 96.71515114 28.80331093 96.71515114 28.81211853 98.21214294 C28.82190735 99.09700378 28.83169617 99.98186462 28.84178162 100.89353943 C28.84823417 101.66692374 28.85468672 102.44030806 28.8613348 103.23712826 C28.81008479 105.02657831 28.81008479 105.02657831 30 106 C32.34987262 106.23527773 34.70556039 106.41386417 37.0625 106.5625 C38.99802734 106.68818359 38.99802734 106.68818359 40.97265625 106.81640625 C41.97167969 106.87699219 42.97070312 106.93757813 44 107 C44.02886751 111.14581887 44.04675327 115.29161216 44.0625 119.4375 C44.07087891 120.62150391 44.07925781 121.80550781 44.08789062 123.02539062 C44.09111328 124.15009766 44.09433594 125.27480469 44.09765625 126.43359375 C44.10289307 127.47572021 44.10812988 128.51784668 44.11352539 129.59155273 C44 132 44 132 43 133 C29.20167863 134.30813319 16.23402459 134.38557009 4.9375 125.625 C-0.14353493 118.7410172 -0.42533192 112.88265276 -0.34057617 104.55688477 C-0.34101425 103.42444839 -0.34145233 102.29201202 -0.34190369 101.1252594 C-0.33982037 97.39713053 -0.31651004 93.66945618 -0.29296875 89.94140625 C-0.28737119 87.35066473 -0.28310185 84.75992003 -0.28010559 82.16917419 C-0.26983719 76.05652584 -0.2462138 69.94406394 -0.21605712 63.83148569 C-0.18245712 56.86896365 -0.16601308 49.90643364 -0.15097082 42.94385064 C-0.11966237 28.62913259 -0.06467292 14.31460526 0 0 Z " fill="#FAFAFB" transform="translate(746,214)"/>
<path d="M0 0 C9.24 0 18.48 0 28 0 C28.33 35.31 28.66 70.62 29 107 C33.29 107.33 37.58 107.66 42 108 C42 115.92 42 123.84 42 132 C38.74125 132.020625 35.4825 132.04125 32.125 132.0625 C31.11969238 132.071604 30.11438477 132.08070801 29.07861328 132.09008789 C12.41047136 132.1403811 12.41047136 132.1403811 8.0625 128.625 C7.381875 127.75875 6.70125 126.8925 6 126 C5.2452399 125.28367149 5.2452399 125.28367149 4.47523212 124.5528717 C-0.89872985 118.89608499 -0.41525567 110.78147324 -0.34057617 103.53515625 C-0.34101425 102.41232742 -0.34145233 101.2894986 -0.34190369 100.13264465 C-0.3398232 96.44241604 -0.31652637 92.7526487 -0.29296875 89.0625 C-0.28737018 86.49560799 -0.28310132 83.92871277 -0.28010559 81.36181641 C-0.26984383 75.30940747 -0.24622932 69.25718728 -0.21605712 63.20484924 C-0.1824366 56.31001765 -0.16600795 49.41517791 -0.15097082 42.52028465 C-0.11967721 28.34675411 -0.06469607 14.1734165 0 0 Z " fill="#FCFCFC" transform="translate(449,214)"/>
<path d="M0 0 C8.58 0 17.16 0 26 0 C26 5.28 26 10.56 26 16 C26.99 16 27.98 16 29 16 C29.0825 15.29875 29.165 14.5975 29.25 13.875 C30.43315216 9.3395834 33.19177314 4.82090879 37 2 C43.68165571 -0.70109486 48.18226184 0 56 0 C56 9.57 56 19.14 56 29 C48.74 29 41.48 29 34 29 C34 29.66 34 30.32 34 31 C32.68 31.33 31.36 31.66 30 32 C29.27956268 35.91536824 28.86006011 39.65919879 28.79467773 43.63818359 C28.77473251 44.71885101 28.75478729 45.79951843 28.73423767 46.91293335 C28.71752518 48.06314972 28.70081268 49.21336609 28.68359375 50.3984375 C28.66281265 51.58853424 28.64203156 52.77863098 28.62062073 54.00479126 C28.55539905 57.79480385 28.49636766 61.58488391 28.4375 65.375 C28.39428874 67.94922564 28.35067362 70.52344453 28.30664062 73.09765625 C28.19898821 79.39836944 28.09971064 85.69913611 28 92 C18.76 92 9.52 92 0 92 C0 61.64 0 31.28 0 0 Z " fill="#FAFAFB" transform="translate(1093,254)"/>
<path d="M0 0 C13.86 0 27.72 0 42 0 C42 30.36 42 60.72 42 92 C33.09 92 24.18 92 15 92 C15 69.56 15 47.12 15 24 C10.05 24 5.1 24 0 24 C0 16.08 0 8.16 0 0 Z " fill="#FDFDFD" transform="translate(390,254)"/>
<path d="M0 0 C4.05384239 3.32622965 6.11490089 7.18748101 6.71484375 12.41796875 C6.76658287 15.94197788 6.5591703 18.6349891 5.4375 22 C4.7775 22 4.1175 22 3.4375 22 C3.4375 22.721875 3.4375 23.44375 3.4375 24.1875 C2.09256934 27.97011749 0.18018135 29.09952275 -3.234375 31.05859375 C-8.31799185 33.11421734 -13.39088416 32.42102958 -18.5625 31 C-18.5625 30.34 -18.5625 29.68 -18.5625 29 C-19.2225 29 -19.8825 29 -20.5625 29 C-23.57954885 25.8000997 -25.06140042 23.38462134 -25.5625 19 C-26.2225 19 -26.8825 19 -27.5625 19 C-27.5895043 17.54176788 -27.60889787 16.08339325 -27.625 14.625 C-27.63660156 13.81289062 -27.64820313 13.00078125 -27.66015625 12.1640625 C-27.5625 10 -27.5625 10 -26.5625 8 C-25.9025 8 -25.2425 8 -24.5625 8 C-24.5625 7.01 -24.5625 6.02 -24.5625 5 C-23.9025 5 -23.2425 5 -22.5625 5 C-22.2325 4.01 -21.9025 3.02 -21.5625 2 C-20.9025 2 -20.2425 2 -19.5625 2 C-19.5625 1.34 -19.5625 0.68 -19.5625 0 C-13.40561585 -2.05229472 -6.20296159 -1.7411822 0 0 Z " fill="#F5F5F6" transform="translate(425.5625,212)"/>
<path d="M0 0 C5.0703747 2.83015024 8.73536179 5.55839365 11.21484375 10.85546875 C11.21484375 12.50546875 11.21484375 14.15546875 11.21484375 15.85546875 C-1.32515625 15.85546875 -13.86515625 15.85546875 -26.78515625 15.85546875 C-26.45515625 13.21546875 -26.12515625 10.57546875 -25.78515625 7.85546875 C-25.12515625 7.85546875 -24.46515625 7.85546875 -23.78515625 7.85546875 C-23.39650391 6.95054687 -23.39650391 6.95054687 -23 6.02734375 C-18.42867869 -2.14517923 -8.01731127 -3.29463142 0 0 Z " fill="#272B3F" transform="translate(849.78515625,275.14453125)"/>
<path d="M0 0 C4.30788009 2.46039493 7.56192091 6.04924821 9.75 10.5 C9.75 12.15 9.75 13.8 9.75 15.5 C-2.79 15.5 -15.33 15.5 -28.25 15.5 C-27.21791645 8.27541516 -26.43487924 6.03970196 -21.25 1.5 C-14.65393574 -2.43226908 -7.09601259 -3.05277788 0 0 Z " fill="#262A3F" transform="translate(1042.25,275.5)"/>
<path d="M0 0 C2.70942393 -0.10861833 5.414439 -0.18758577 8.125 -0.25 C8.88554688 -0.28351563 9.64609375 -0.31703125 10.4296875 -0.3515625 C15.7822761 -0.44384851 18.75632254 0.43740657 23 4 C24.375 6.25 24.375 6.25 25 8 C25.66 8 26.32 8 27 8 C27.495 11.96 27.495 11.96 28 16 C15.79 16 3.58 16 -9 16 C-7.86749482 9.20496894 -7.86749482 9.20496894 -5.0625 5.625 C-4.53785156 4.93664062 -4.01320313 4.24828125 -3.47265625 3.5390625 C-2.98667969 3.03117187 -2.50070312 2.52328125 -2 2 C-1.34 2 -0.68 2 0 2 C0 1.34 0 0.68 0 0 Z " fill="#191D33" transform="translate(535,275)"/>
<path d="M0 0 C29.7 0 59.4 0 90 0 C90 9.24 90 18.48 90 28 C89 29 89 29 86.63987732 29.12025452 C85.59396927 29.11803391 84.54806122 29.11581329 83.47045898 29.11352539 C82.28931015 29.11344986 81.10816132 29.11337433 79.89122009 29.11329651 C78.6058284 29.10813522 77.32043671 29.10297394 75.99609375 29.09765625 C74.0338662 29.09553383 74.0338662 29.09553383 72.03199768 29.09336853 C68.54837141 29.0895441 65.06478661 29.07971446 61.58117676 29.06866455 C58.02873292 29.05844882 54.47628241 29.05387056 50.92382812 29.04882812 C43.94920168 29.03809212 36.97460283 29.0210166 30 29 C30 28.34 30 27.68 30 27 C49.14 27 68.28 27 88 27 C88 18.42 88 9.84 88 1 C59.29 1 30.58 1 1 1 C1 44.56 1 88.12 1 133 C0.67 133 0.34 133 0 133 C0 89.11 0 45.22 0 0 Z " fill="#B2B3BA" transform="translate(294,213)"/>
<path d="M0 0 C9.57 0 19.14 0 29 0 C29.33 3.96 29.66 7.92 30 12 C30.33 12.66 30.66 13.32 31 14 C30.67 14.99 30.34 15.98 30 17 C29.01 17 28.02 17 27 17 C27 11.72 27 6.44 27 1 C18.42 1 9.84 1 1 1 C1 31.36 1 61.72 1 93 C10.24 93 19.48 93 29 93 C28.97679687 89.17148437 28.95359375 85.34296875 28.9296875 81.3984375 C28.9140841 77.68506196 28.90194325 73.9716901 28.89013672 70.25830078 C28.88008738 67.68015912 28.86644574 65.10202882 28.84912109 62.52392578 C28.82482633 58.81540111 28.81350604 55.10702732 28.8046875 51.3984375 C28.79436493 50.24822113 28.78404236 49.09800476 28.77340698 47.91293335 C28.77192858 37.33673228 28.77192858 37.33673228 31 33 C32.485 32.505 32.485 32.505 34 32 C34 32.66 34 33.32 34 34 C33.34 34 32.68 34 32 34 C31.67 53.8 31.34 73.6 31 94 C20.77 94 10.54 94 0 94 C0 62.98 0 31.96 0 0 Z " fill="#6B6E7B" transform="translate(1092,253)"/>
<path d="M0 0 C0.69351563 -0.00386719 1.38703125 -0.00773438 2.1015625 -0.01171875 C7.24833354 -0.00166646 7.24833354 -0.00166646 8.375 1.125 C8.46846915 2.78238443 8.49244977 4.44374644 8.48852539 6.10375977 C8.48844986 7.16478409 8.48837433 8.22580841 8.48829651 9.31898499 C8.48313522 10.473134 8.47797394 11.62728302 8.47265625 12.81640625 C8.4712413 13.99138168 8.46982635 15.16635712 8.46836853 16.37693787 C8.46274992 20.14715064 8.45019426 23.91730504 8.4375 27.6875 C8.4324874 30.23632727 8.42792408 32.78515547 8.42382812 35.33398438 C8.41277444 41.5976789 8.39549734 47.86132954 8.375 54.125 C-1.525 55.115 -1.525 55.115 -11.625 56.125 C-11.295 55.465 -10.965 54.805 -10.625 54.125 C-6.995 54.125 -3.365 54.125 0.375 54.125 C0.375 53.465 0.375 52.805 0.375 52.125 C2.355 52.125 4.335 52.125 6.375 52.125 C6.375 35.625 6.375 19.125 6.375 2.125 C-4.02 2.62 -4.02 2.62 -14.625 3.125 C-9.43747477 0.53123739 -5.68551507 -0.03206118 0 0 Z " fill="#405488" transform="translate(238.625,135.875)"/>
<path d="M0 0 C0.99 0.33 1.98 0.66 3 1 C3 17.17 3 33.34 3 50 C-15.86956522 50 -15.86956522 50 -23 46 C-18.76437142 44.54944227 -16.10177358 45.76116354 -12.0234375 47.2109375 C-7.78353652 48.31747496 -3.36016911 48.56398309 1 49 C0.67 32.83 0.34 16.66 0 0 Z " fill="#455A92" transform="translate(244,323)"/>
<path d="M0 0 C0.66 0.33 1.32 0.66 2 1 C2.4140625 3.06640625 2.4140625 3.06640625 2.625 5.5625 C2.69976563 6.38878906 2.77453125 7.21507812 2.8515625 8.06640625 C2.90054688 8.70449219 2.94953125 9.34257812 3 10 C3.66 10 4.32 10 5 10 C5 13.3 5 16.6 5 20 C-6.22 20 -17.44 20 -29 20 C-29 19.34 -29 18.68 -29 18 C-18.11 18 -7.22 18 4 18 C2.68 12.72 1.36 7.44 0 2 C0 1.34 0 0.68 0 0 Z " fill="#545867" transform="translate(729,247)"/>
<path d="M0 0 C4.29 0 8.58 0 13 0 C13 17.49 13 34.98 13 53 C6.70850958 55.35930891 3.24663864 56.44226441 -3 57 C-3 56.34 -3 55.68 -3 55 C-1.25183142 54.49363393 0.49862263 53.99515381 2.25 53.5 C3.22453125 53.2215625 4.1990625 52.943125 5.203125 52.65625 C8 52 8 52 12 52 C12 35.17 12 18.34 12 1 C5.565 1.495 5.565 1.495 -1 2 C-0.67 1.34 -0.34 0.68 0 0 Z " fill="#3A4C7C" transform="translate(234,209)"/>
<path d="M0 0 C2 3 2 3 2 8 C-10.21 8 -22.42 8 -35 8 C-34.67 6.02 -34.34 4.04 -34 2 C-33.67 3.32 -33.34 4.64 -33 6 C-22.11 6 -11.22 6 0 6 C0 4.02 0 2.04 0 0 Z " fill="#46495A" transform="translate(561,283)"/>
<path d="M0 0 C0.63454102 0.21366211 1.26908203 0.42732422 1.92285156 0.64746094 C9.64530275 3.02552083 16.70834854 3.39248773 24.75 3.25 C26.51923828 3.24226563 26.51923828 3.24226563 28.32421875 3.234375 C33.97353561 3.1835375 39.43699468 3.00849804 45 2 C44.67 2.66 44.34 3.32 44 4 C31.05704465 7.49459795 15.96424381 7.13605898 3 4 C3 3.34 3 2.68 3 2 C2.01 1.67 1.02 1.34 0 1 C0 0.67 0 0.34 0 0 Z " fill="#ABADB5" transform="translate(819,343)"/>
<path d="M0 0 C1.67316284 0.0314209 1.67316284 0.0314209 3.38012695 0.06347656 C4.58862305 0.07636719 5.79711914 0.08925781 7.04223633 0.10253906 C8.30487305 0.13605469 9.56750977 0.16957031 10.8684082 0.20410156 C12.14264648 0.22214844 13.41688477 0.24019531 14.72973633 0.25878906 C17.88087662 0.30599716 21.03051961 0.37183772 24.1809082 0.45410156 C24.1809082 1.77410156 24.1809082 3.09410156 24.1809082 4.45410156 C23.5209082 4.45410156 22.8609082 4.45410156 22.1809082 4.45410156 C21.8509082 6.76410156 21.5209082 9.07410156 21.1809082 11.45410156 C19.95494781 7.77622038 20.33780743 6.66960543 21.1809082 2.45410156 C13.2609082 2.78410156 5.3409082 3.11410156 -2.8190918 3.45410156 C-3.1490918 4.11410156 -3.4790918 4.77410156 -3.8190918 5.45410156 C-4.4790918 5.12410156 -5.1390918 4.79410156 -5.8190918 4.45410156 C-4.14503987 1.48143792 -3.44429981 0.55481057 0 0 Z " fill="#A3A5AE" transform="translate(863.819091796875,314.5458984375)"/>
<path d="M0 0 C8.58 0 17.16 0 26 0 C25.67 3.3 25.34 6.6 25 10 C24.34 10 23.68 10 23 10 C23.33 7.36 23.66 4.72 24 2 C20.04137069 2.13842295 16.08318673 2.28699006 12.125 2.4375 C10.99707031 2.47681641 9.86914062 2.51613281 8.70703125 2.55664062 C7.63066406 2.59853516 6.55429687 2.64042969 5.4453125 2.68359375 C3.95281982 2.73858032 3.95281982 2.73858032 2.43017578 2.79467773 C-0.00779501 2.84959532 -0.00779501 2.84959532 -2 4 C-1.34 2.68 -0.68 1.36 0 0 Z " fill="#A4A6AE" transform="translate(564,315)"/>
<path d="M0 0 C0.92679565 0.32158081 0.92679565 0.32158081 1.87231445 0.6496582 C10.05322206 3.21108539 17.66688818 3.35340308 26.1875 3.1875 C27.53449006 3.17240904 28.88149668 3.15872852 30.22851562 3.14648438 C33.48611152 3.11145646 36.74283173 3.06233662 40 3 C34.94590224 6.36939851 29.87256223 6.19280449 23.9375 6.1875 C22.82000366 6.1884668 22.82000366 6.1884668 21.67993164 6.18945312 C15.31999095 6.12935705 9.22128466 5.34255083 3 4 C3 3.34 3 2.68 3 2 C2.01 1.67 1.02 1.34 0 1 C0 0.67 0 0.34 0 0 Z " fill="#BCBDC3" transform="translate(522,343)"/>
<path d="M0 0 C1.34888749 2.69777497 0.51439326 4.25056328 -0.32592773 7.02978516 C-0.9773806 8.93388679 -1.75465115 10.79349662 -2.53515625 12.6484375 C-4.27351709 17.25173637 -4.54832756 21.61703541 -4.6875 26.5 C-4.72166016 27.32242187 -4.75582031 28.14484375 -4.79101562 28.9921875 C-4.8724988 30.9943455 -4.93794575 32.99714568 -5 35 C-5.66 35 -6.32 35 -7 35 C-7.02726927 32.64575325 -7.04696719 30.29183038 -7.0625 27.9375 C-7.07990234 25.97103516 -7.07990234 25.97103516 -7.09765625 23.96484375 C-7.00452335 20.1836481 -6.61448726 16.72079293 -6 13 C-5.34 13 -4.68 13 -4 13 C-4 11.35 -4 9.7 -4 8 C-3.34 8 -2.68 8 -2 8 C-1.855625 6.865625 -1.71125 5.73125 -1.5625 4.5625 C-1 1 -1 1 0 0 Z " fill="#6B6E7C" transform="translate(504,272)"/>
<path d="M0 0 C11.22 0 22.44 0 34 0 C34 5.01632918 33.70572284 7.52247755 32 12 C31.67 12 31.34 12 31 12 C31 8.37 31 4.74 31 1 C21.1 1 11.2 1 1 1 C1 2.32 1 3.64 1 5 C0.34 5 -0.32 5 -1 5 C-0.67 3.35 -0.34 1.7 0 0 Z " fill="#A3A5AD" transform="translate(700,294)"/>
<path d="M0 0 C2.31 0.33 4.62 0.66 7 1 C7 1.66 7 2.32 7 3 C16.57 3.33 26.14 3.66 36 4 C31.67939951 6.16030025 28.55640837 6.30879882 23.875 6.25 C23.11670898 6.24395752 22.35841797 6.23791504 21.57714844 6.23168945 C13.97868 6.0979136 6.25693231 5.79698144 0 1 C0 0.67 0 0.34 0 0 Z " fill="#BFC0C6" transform="translate(1010,343)"/>
<path d="M0 0 C0.66 0.33 1.32 0.66 2 1 C-1.61771143 5.25081093 -5.31333917 9.41796728 -9.1875 13.4375 C-9.82042969 14.09621094 -10.45335937 14.75492188 -11.10546875 15.43359375 C-13.10810653 17.08938293 -14.46014048 17.60015515 -17 18 C-16.04956626 16.66102417 -15.08940853 15.32894573 -14.125 14 C-13.32449219 12.88625 -13.32449219 12.88625 -12.5078125 11.75 C-12.01023438 11.1725 -11.51265625 10.595 -11 10 C-10.34 10 -9.68 10 -9 10 C-8.67 9.01 -8.34 8.02 -8 7 C-7.34 7 -6.68 7 -6 7 C-5.67 6.01 -5.34 5.02 -5 4 C-4.34 4 -3.68 4 -3 4 C-3 3.34 -3 2.68 -3 2 C-2.01 2 -1.02 2 0 2 C0 1.34 0 0.68 0 0 Z " fill="#455B93" transform="translate(198,226)"/>
<path d="M0 0 C0.99 0.495 0.99 0.495 2 1 C2 1.99 2 2.98 2 4 C2.66 4 3.32 4 4 4 C4 5.32 4 6.64 4 8 C14.23 8 24.46 8 35 8 C35.33 7.01 35.66 6.02 36 5 C36 6.32 36 7.64 36 9 C25.11 9 14.22 9 3 9 C3 8.34 3 7.68 3 7 C2.34 7 1.68 7 1 7 C0.67 4.69 0.34 2.38 0 0 Z " fill="#B0B1B8" transform="translate(697,256)"/>
<path d="M0 0 C0.66 0.33 1.32 0.66 2 1 C1.01 1.33 0.02 1.66 -1 2 C-1.68486725 3.32407669 -2.34870203 4.65909241 -3 6 C-5 8.25 -5 8.25 -7 10 C-7.66 10 -8.32 10 -9 10 C-9 13.3 -9 16.6 -9 20 C-9.66 20 -10.32 20 -11 20 C-11.0270043 18.54176788 -11.04639787 17.08339325 -11.0625 15.625 C-11.07410156 14.81289062 -11.08570313 14.00078125 -11.09765625 13.1640625 C-11 11 -11 11 -10 9 C-9.34 9 -8.68 9 -8 9 C-8 8.01 -8 7.02 -8 6 C-7.34 6 -6.68 6 -6 6 C-5.67 5.01 -5.34 4.02 -5 3 C-4.34 3 -3.68 3 -3 3 C-3 2.34 -3 1.68 -3 1 C-2.01 0.67 -1.02 0.34 0 0 Z " fill="#9FA0A9" transform="translate(409,211)"/>
<path d="M0 0 C0.66 0.33 1.32 0.66 2 1 C0.61240749 2.61130023 -0.78545623 4.21375841 -2.1875 5.8125 C-2.96480469 6.70582031 -3.74210938 7.59914063 -4.54296875 8.51953125 C-6.89417119 10.8931617 -9.06791184 12.43240047 -12 14 C-11.1875 11.5625 -11.1875 11.5625 -10 9 C-9.01 8.67 -8.02 8.34 -7 8 C-6.67 7.34 -6.34 6.68 -6 6 C-5 4 -5 4 -2 3 C-2 2.34 -2 1.68 -2 1 C-1.34 0.67 -0.68 0.34 0 0 Z " fill="#BDBEC4" transform="translate(517,258)"/>
<path d="M0 0 C0.33 0.66 0.66 1.32 1 2 C-0.07507629 3.29854721 -1.16043736 4.58858361 -2.25 5.875 C-2.85328125 6.59429687 -3.4565625 7.31359375 -4.078125 8.0546875 C-6 10 -6 10 -8.171875 11.0703125 C-10.36169337 11.91462673 -10.36169337 11.91462673 -11 15 C-11.33 14.34 -11.66 13.68 -12 13 C-11.67 12.01 -11.34 11.02 -11 10 C-10.34 10 -9.68 10 -9 10 C-8.731875 9.360625 -8.46375 8.72125 -8.1875 8.0625 C-7 6 -7 6 -4 5 C-4 4.34 -4 3.68 -4 3 C-3.34 3 -2.68 3 -2 3 C-2 2.34 -2 1.68 -2 1 C-1.34 0.67 -0.68 0.34 0 0 Z " fill="#B5B6BD" transform="translate(1005,258)"/>
<path d="M0 0 C0.66 0 1.32 0 2 0 C2.06058594 0.84304687 2.12117188 1.68609375 2.18359375 2.5546875 C2.26738281 3.65039062 2.35117188 4.74609375 2.4375 5.875 C2.51871094 6.96554687 2.59992188 8.05609375 2.68359375 9.1796875 C2.83001703 11.94728971 2.83001703 11.94728971 4 14 C3.67 14.99 3.34 15.98 3 17 C2.01 17 1.02 17 0 17 C0 11.39 0 5.78 0 0 Z " fill="#676A78" transform="translate(1119,253)"/>
<path d="M0 0 C0.66 0 1.32 0 2 0 C1.57515676 5.65712314 0.90981646 10.6286412 -1 16 C-1.165 17.258125 -1.33 18.51625 -1.5 19.8125 C-1.665 20.864375 -1.83 21.91625 -2 23 C-2.66 23.33 -3.32 23.66 -4 24 C-3.34 18.06 -2.68 12.12 -2 6 C-1.34 6 -0.68 6 0 6 C0 4.02 0 2.04 0 0 Z " fill="#717380" transform="translate(950,260)"/>
<path d="M0 0 C1 2 1 2 0.0625 5.1875 C-1.71255987 11.60868972 -1.15477752 18.39615916 -1 25 C-1.66 25 -2.32 25 -3 25 C-3.0875127 21.77100574 -3.14056146 18.54231884 -3.1875 15.3125 C-3.21263672 14.40048828 -3.23777344 13.48847656 -3.26367188 12.54882812 C-3.31848438 7.52434845 -3.28571911 4.09636897 0 0 Z " fill="#384A79" transform="translate(218,276)"/>
<path d="M0 0 C0.69287109 0.00451172 1.38574219 0.00902344 2.09960938 0.01367188 C3.79561068 0.02536844 5.49156703 0.04330076 7.1875 0.0625 C7.1875 0.3925 7.1875 0.7225 7.1875 1.0625 C-1.2275 1.5575 -1.2275 1.5575 -9.8125 2.0625 C-9.8125 2.7225 -9.8125 3.3825 -9.8125 4.0625 C-11.7925 4.3925 -13.7725 4.7225 -15.8125 5.0625 C-15.8125 4.4025 -15.8125 3.7425 -15.8125 3.0625 C-14.8225 3.0625 -13.8325 3.0625 -12.8125 3.0625 C-12.8125 2.4025 -12.8125 1.7425 -12.8125 1.0625 C-8.52952469 0.00630997 -4.38264354 -0.05452092 0 0 Z " fill="#9D9FA7" transform="translate(668.8125,238.9375)"/>
<path d="M0 0 C0 0.66 0 1.32 0 2 C-0.99 2 -1.98 2 -3 2 C-3.09152344 2.59296875 -3.18304687 3.1859375 -3.27734375 3.796875 C-4.17232113 6.52534657 -5.33906301 7.47125041 -7.5625 9.25 C-8.20316406 9.77078125 -8.84382812 10.2915625 -9.50390625 10.828125 C-9.99761719 11.21484375 -10.49132812 11.6015625 -11 12 C-11 11.01 -11 10.02 -11 9 C-10.01 8.67 -9.02 8.34 -8 8 C-6.78130071 5.49552484 -6.78130071 5.49552484 -6 3 C-5.34 3 -4.68 3 -4 3 C-4 2.34 -4 1.68 -4 1 C-2 0 -2 0 0 0 Z " fill="#C7C8CD" transform="translate(816,258)"/>
<path d="M0 0 C1.41077471 3.8346561 0.60999698 6.78328293 -0.3125 10.6875 C-0.57675781 11.84636719 -0.84101562 13.00523437 -1.11328125 14.19921875 C-1.40589844 15.12347656 -1.69851562 16.04773438 -2 17 C-2.66 17.33 -3.32 17.66 -4 18 C-3.67 14.04 -3.34 10.08 -3 6 C-2.34 6 -1.68 6 -1 6 C-0.67 4.02 -0.34 2.04 0 0 Z " fill="#344470" transform="translate(103,242)"/>
<path d="M0 0 C2 1 2 1 3.10546875 3.80078125 C3.64107422 5.53908203 3.64107422 5.53908203 4.1875 7.3125 C4.55230469 8.46363281 4.91710937 9.61476563 5.29296875 10.80078125 C5.95478247 13.79539693 6.08640853 15.19748119 5 18 C2.13609892 12.14202052 0.9877064 6.42590164 0 0 Z " fill="#646775" transform="translate(905,305)"/>
<path d="M0 0 C5.00727683 0.51799415 9.22322933 1.3738653 14 3 C16.32694964 3.37531446 18.65976685 3.71917202 21 4 C21 4.33 21 4.66 21 5 C13.27669636 5.13549656 6.90805891 4.87525256 0 1 C0 0.67 0 0.34 0 0 Z " fill="#3B4D7E" transform="translate(221,368)"/>
<path d="M0 0 C0.66 0 1.32 0 2 0 C1.67 1.32 1.34 2.64 1 4 C0.34 4 -0.32 4 -1 4 C-1.103125 4.763125 -1.20625 5.52625 -1.3125 6.3125 C-2.06034403 9.23589031 -2.60664352 10.22714335 -5 12 C-7.1875 12.6875 -7.1875 12.6875 -9 13 C-9 12.34 -9 11.68 -9 11 C-8.2575 10.443125 -7.515 9.88625 -6.75 9.3125 C-3.38755403 6.48498862 -2.01263373 3.87618348 0 0 Z " fill="#616473" transform="translate(585,327)"/>
<path d="M0 0 C2.64 0 5.28 0 8 0 C8 0.66 8 1.32 8 2 C9.134375 2.28875 10.26875 2.5775 11.4375 2.875 C12.613125 3.24625 13.78875 3.6175 15 4 C15.33 4.66 15.66 5.32 16 6 C13.69 5.67 11.38 5.34 9 5 C9 4.34 9 3.68 9 3 C4.545 2.01 4.545 2.01 0 1 C0 0.67 0 0.34 0 0 Z " fill="#8D8F99" transform="translate(1042,251)"/>
<path d="M0 0 C0.66 0 1.32 0 2 0 C1.7451971 1.96048352 1.47063056 3.91840673 1.1875 5.875 C1.03667969 6.96554687 0.88585937 8.05609375 0.73046875 9.1796875 C0 12 0 12 -3 14 C-2.67 11.03 -2.34 8.06 -2 5 C-1.34 5 -0.68 5 0 5 C0 3.35 0 1.7 0 0 Z " fill="#7F818D" transform="translate(969,301)"/>
<path d="M0 0 C2.10291786 4.20583572 -0.77849774 10.29857616 -2.125 14.5625 C-2.41375 15.366875 -2.7025 16.17125 -3 17 C-3.66 17 -4.32 17 -5 17 C-4.53444296 10.59859065 -2.85288164 5.73230171 0 0 Z " fill="#3A4C7D" transform="translate(109,224)"/>
<path d="M0 0 C2.27271998 3.40907997 2.84055982 6.06742119 3.6875 10.0625 C3.95949219 11.31160156 4.23148438 12.56070312 4.51171875 13.84765625 C5 17 5 17 4 19 C0.75428718 12.79081025 0.33055741 6.94170563 0 0 Z " fill="#ACADB5" transform="translate(925,267)"/>
<path d="M0 0 C0.66 0 1.32 0 2 0 C1.45244723 3.83286936 -0.2333041 5.40098264 -3 8 C-3.99 9.485 -3.99 9.485 -5 11 C-5.99 11 -6.98 11 -8 11 C-8 9 -8 9 -5.6875 6.4375 C-3 4 -3 4 0 3 C0 2.01 0 1.02 0 0 Z " fill="#696C7A" transform="translate(881,329)"/>
<path d="M0 0 C2.31 0.33 4.62 0.66 7 1 C7 1.66 7 2.32 7 3 C8.65 3.33 10.3 3.66 12 4 C9.5332355 4.88336837 8.36140628 5.1312406 5.859375 4.22265625 C5.16328125 3.83980469 4.4671875 3.45695312 3.75 3.0625 C3.04359375 2.68222656 2.3371875 2.30195313 1.609375 1.91015625 C1.07828125 1.60980469 0.5471875 1.30945313 0 1 C0 0.67 0 0.34 0 0 Z " fill="#91939D" transform="translate(1010,343)"/>
<path d="M0 0 C-3.42346555 3.14958831 -6.44262737 3.56179109 -11 4 C-11 3.34 -11 2.68 -11 2 C-9.35 2 -7.7 2 -6 2 C-6 1.34 -6 0.68 -6 0 C-2.25 -1.125 -2.25 -1.125 0 0 Z " fill="#AAACB4" transform="translate(703,342)"/>
<path d="M0 0 C0.66 0 1.32 0 2 0 C2 0.66 2 1.32 2 2 C2.66 2 3.32 2 4 2 C4.66 4.97 5.32 7.94 6 11 C5.34 11 4.68 11 4 11 C3.71125 10.113125 3.4225 9.22625 3.125 8.3125 C2.16851252 5.49617576 1.13201054 2.74916844 0 0 Z " fill="#6E707D" transform="translate(880,270)"/>
<path d="M0 0 C0.66 0.33 1.32 0.66 2 1 C1.55090939 2.48199902 1.09043436 3.96055236 0.625 5.4375 C0.36976563 6.26121094 0.11453125 7.08492187 -0.1484375 7.93359375 C-1 10 -1 10 -3 11 C-3 9.68 -3 8.36 -3 7 C-2.34 7 -1.68 7 -1 7 C-0.67 4.69 -0.34 2.38 0 0 Z " fill="#9698A1" transform="translate(610,242)"/>
<path d="M0 0 C0 0.66 0 1.32 0 2 C-5.45769231 5.10096154 -5.45769231 5.10096154 -8.203125 4.58984375 C-8.79609375 4.39519531 -9.3890625 4.20054687 -10 4 C-8.71086513 3.32845067 -7.41859796 2.66291141 -6.125 2 C-5.40570313 1.62875 -4.68640625 1.2575 -3.9453125 0.875 C-2 0 -2 0 0 0 Z " fill="#405489" transform="translate(221,214)"/>
<path d="M0 0 C0.33 0.66 0.66 1.32 1 2 C-0.1875 5.0625 -0.1875 5.0625 -2 8 C-3.32 8.33 -4.64 8.66 -6 9 C-4.02 6.03 -2.04 3.06 0 0 Z " fill="#3C4F81" transform="translate(127,194)"/>
<path d="M0 0 C1.48199902 0.44909061 2.96055236 0.90956564 4.4375 1.375 C5.26121094 1.63023437 6.08492187 1.88546875 6.93359375 2.1484375 C9 3 9 3 10 5 C7.69 4.67 5.38 4.34 3 4 C3 3.34 3 2.68 3 2 C2.01 1.67 1.02 1.34 0 1 C0 0.67 0 0.34 0 0 Z " fill="#727582" transform="translate(819,343)"/>
<path d="M0 0 C1.48199902 0.44909061 2.96055236 0.90956564 4.4375 1.375 C5.26121094 1.63023437 6.08492187 1.88546875 6.93359375 2.1484375 C9 3 9 3 10 5 C7.69 4.67 5.38 4.34 3 4 C3 3.34 3 2.68 3 2 C2.01 1.67 1.02 1.34 0 1 C0 0.67 0 0.34 0 0 Z " fill="#797C88" transform="translate(522,343)"/>
<path d="M0 0 C-1.28650706 0.69710731 -2.57940665 1.38242876 -3.875 2.0625 C-4.95394531 2.63677734 -4.95394531 2.63677734 -6.0546875 3.22265625 C-6.69664062 3.47917969 -7.33859375 3.73570312 -8 4 C-8.66 3.67 -9.32 3.34 -10 3 C-9.01 2.67 -8.02 2.34 -7 2 C-7 1.34 -7 0.68 -7 0 C-2.25 -1.125 -2.25 -1.125 0 0 Z " fill="#303F69" transform="translate(205,144)"/>
</svg>
